<?xml version="1.0" encoding="utf-8"?>
<!-- Generator: Adobe Illustrator 27.5.0, SVG Export Plug-In . SVG Version: 6.00 Build 0)  -->
<svg version="1.1" id="Layer_1" xmlns="http://www.w3.org/2000/svg" xmlns:xlink="http://www.w3.org/1999/xlink" x="0px" y="0px"
	 viewBox="0 0 566.93 453.54" style="enable-background:new 0 0 566.93 453.54;" xml:space="preserve">
<style type="text/css">
	.st0{fill:#8F24BC;}
	.st1{fill:#0C1F8E;}
	.st2{fill:#309FAA;}
	.st3{fill:#431775;}
	.st4{fill:#080420;}
	.st5{fill:url(#SVGID_1_);}
	.st6{fill:url(#SVGID_00000165954108004207284280000015883692846982674102_);}
	.st7{fill:url(#SVGID_00000183967803990068105250000014936491778469993903_);}
	.st8{fill:url(#SVGID_00000085236889609989775100000009171039184976115632_);}
	.st9{fill:url(#SVGID_00000078735889096367123110000008773765667896580011_);}
	.st10{fill:url(#SVGID_00000054954646211475410100000003618966966915595658_);}
	.st11{enable-background:new    ;}
	.st12{fill:url(#SVGID_00000040554719341944395520000017058966338509843884_);}
	.st13{fill:url(#SVGID_00000056399755375284614040000014930051105550784670_);}
	.st14{fill:url(#SVGID_00000096059930608342405070000007743309535138290070_);}
	.st15{fill:url(#SVGID_00000175318427233294366620000001157277986894221472_);}
	.st16{opacity:0.5608;fill:url(#SVGID_00000107556438644772941410000018239313960142875049_);}
	.st17{fill:#F9FCFF;}
	.st18{fill:url(#SVGID_00000044148251444616666080000012357691137603044270_);}
	.st19{fill:url(#SVGID_00000080196449710443252190000017815221174081450399_);}
	.st20{fill:url(#SVGID_00000147187278863148839620000004857303251970680238_);}
	.st21{fill:url(#SVGID_00000029013406471016955440000006634832984249469570_);}
	.st22{opacity:0.5608;fill:url(#SVGID_00000148626322306071901820000015992704340889024403_);}
	.st23{fill:url(#SVGID_00000154425381688141618010000001060445305216577415_);}
	.st24{fill:url(#SVGID_00000100385222733448090550000007467847150066137527_);}
	.st25{fill:url(#SVGID_00000098914236449857692090000008730837947189497221_);}
	.st26{fill:url(#SVGID_00000170244615516724555870000015854054937057916838_);}
	.st27{fill:url(#SVGID_00000087402588970502296710000002648770949431527059_);}
	.st28{fill:url(#SVGID_00000116913647882408413440000014753275751338686389_);}
	.st29{fill:url(#SVGID_00000159455159853751758430000015932873595210113720_);}
	.st30{fill:url(#SVGID_00000109737380019201369380000012892681345012851591_);}
	.st31{opacity:0.5608;fill:url(#SVGID_00000083063248195477522250000003207317930458272955_);}
	.st32{fill:url(#SVGID_00000104687247354683186620000013247974813398105268_);}
	.st33{fill:url(#SVGID_00000060019211927275891370000006435991528013872787_);}
	.st34{fill:url(#SVGID_00000111899122949206334080000012884140417383594170_);}
	.st35{fill:url(#SVGID_00000119826424771563249960000007221882424848990131_);}
	.st36{opacity:0.5608;fill:url(#SVGID_00000042723949513491208360000005363105148765204120_);}
	.st37{fill:url(#SVGID_00000155104967402008436910000006632838593059546806_);}
	.st38{fill:url(#SVGID_00000071540717130757723920000013469886596728653185_);}
	.st39{fill:url(#SVGID_00000123399174994848807250000002212395266948030889_);}
	.st40{fill:url(#SVGID_00000072974174741081649540000004504471785838652347_);}
	.st41{opacity:0.5608;fill:url(#SVGID_00000145746688986755192000000015308858642744080532_);}
	.st42{opacity:0.57;fill:#431775;}
	.st43{fill:url(#SVGID_00000037694573132985703380000009151795464846323887_);}
	.st44{fill:url(#SVGID_00000057143523091082256550000016612752288278311604_);}
	.st45{fill:url(#SVGID_00000002351761731928302110000003060526599447122345_);}
	.st46{fill:url(#SVGID_00000114757522926291454470000009631602304252857515_);}
	.st47{fill:url(#SVGID_00000052813400305326056370000007843594621884775345_);}
	.st48{fill:url(#SVGID_00000057139535664718624230000012348845525179064759_);}
	.st49{fill:url(#SVGID_00000159442000472382713890000012415505361094086567_);}
	.st50{fill:url(#SVGID_00000034081641417890388430000009215114231812092561_);}
	.st51{fill:url(#SVGID_00000087390993284708834910000016490086472938514309_);}
	.st52{fill:url(#SVGID_00000183249711370054696900000013858491465058069389_);}
	.st53{fill:url(#SVGID_00000010312903933799189500000013399399736289523354_);}
	.st54{opacity:0.5608;fill:#431775;}
	.st55{opacity:0.5608;fill:#8F24BC;}
	.st56{fill:#AAE0F1;}
	.st57{fill:url(#SVGID_00000131346220877806271890000012036389908547214244_);}
	.st58{fill:#155698;}
	.st59{fill:#145494;}
	.st60{fill:#145290;}
	.st61{fill:#13508D;}
	.st62{fill:#134E89;}
	.st63{fill:#124C85;}
	.st64{fill:#124981;}
	.st65{fill:#11477D;}
	.st66{fill:#11457A;}
	.st67{fill:#104376;}
	.st68{fill:#DAD5D8;}
	.st69{fill:url(#SVGID_00000155836794726562335540000016919499137781506946_);}
	.st70{fill:#C1D0EB;}
	.st71{fill:#DCE6F6;}
	.st72{fill:#B5C7E8;}
	.st73{fill:#35ABE2;}
	.st74{fill:#008DD7;}
	.st75{clip-path:url(#SVGID_00000001660754910999535410000017779862270283057596_);}
	.st76{fill:#54BCE9;}
	.st77{fill:url(#SVGID_00000000192397003643205430000002327852507156663708_);}
	.st78{opacity:0.5608;fill:#309FAA;}
	.st79{clip-path:url(#SVGID_00000099630187286890815200000017897749413291887016_);}
	.st80{fill:url(#SVGID_00000063635128425802612450000009586142559990689436_);}
	.st81{opacity:0.3;}
	.st82{fill:#004299;}
	.st83{fill:#2A2A66;}
	.st84{fill:#FFC6A0;}
	.st85{fill:#FFFFFF;}
	.st86{fill:#FDF7FB;}
	.st87{opacity:0.5608;fill:#F9FCFF;}
	.st88{fill:url(#SVGID_00000000213677110527507230000010802099756698742206_);}
	.st89{fill:url(#SVGID_00000064321185017432202570000012575046895937547418_);}
	.st90{fill:url(#SVGID_00000070817335261415878080000015949743541422182793_);}
	.st91{fill:#A8BEE3;}
	.st92{opacity:0.8333;}
	.st93{fill:#53AFB8;}
	.st94{opacity:0.6667;}
	.st95{fill:#75BFC6;}
	.st96{opacity:0.5;}
	.st97{fill:#98CFD4;}
	.st98{opacity:0.3333;}
	.st99{fill:#BADFE3;}
	.st100{opacity:0.1667;}
	.st101{fill:#DCEFF1;}
	.st102{opacity:0;}
	.st103{fill:#3444A0;}
	.st104{fill:#5C69B3;}
	.st105{fill:#848EC5;}
	.st106{fill:#ACB2D7;}
	.st107{fill:#D4D7EA;}
	.st108{fill:#FCFCFC;}
	.st109{fill:#52AFB8;}
	.st110{fill:#74BEC5;}
	.st111{fill:#96CED3;}
	.st112{fill:#B8DDE1;}
	.st113{fill:#DAECEE;}
	.st114{fill:#623E8C;}
	.st115{fill:#8264A3;}
	.st116{fill:#A18BBA;}
	.st117{fill:#C0B2D1;}
	.st118{fill:#E0D8E8;}
	.st119{fill:#A249C7;}
	.st120{fill:#B46DD2;}
	.st121{fill:#C792DE;}
	.st122{fill:#DAB6E9;}
	.st123{fill:#ECDAF4;}
	.st124{fill:#FCC9B4;}
	.st125{fill:#F2C370;}
	.st126{opacity:0.2;fill:#9193A3;}
	.st127{fill:#F2C3B1;}
	.st128{fill:#15154F;}
	.st129{fill:url(#SVGID_00000171710754789270506970000014667015180962024883_);}
	.st130{fill:url(#SVGID_00000050660590940889570590000002368844899535103884_);}
	.st131{fill:url(#SVGID_00000114767728257989656360000017765498552634326463_);}
	.st132{fill:url(#SVGID_00000176726111940545482130000006083379658951848103_);}
	.st133{fill:url(#SVGID_00000057122059197030500990000017588769325260384696_);}
	.st134{fill:url(#SVGID_00000041254698344003836310000014672720489767804037_);}
</style>
<g>
	<path class="st2" d="M505.75,168.77h-1.06v-8.5c0-5.35-4.35-9.7-9.7-9.7c-5.35,0-9.7,4.35-9.7,9.7v3.26h4.8v-3.26
		c0-2.7,2.2-4.9,4.9-4.9c2.7,0,4.9,2.2,4.9,4.9v8.5h-15.65c-0.88,0-1.6,0.72-1.6,1.6v18.31c0,0.88,0.72,1.6,1.6,1.6h21.51
		c0.88,0,1.6-0.72,1.6-1.6v-18.31C507.35,169.49,506.64,168.77,505.75,168.77z M496.6,179.99v2.59c0,0.88-0.72,1.6-1.6,1.6
		s-1.6-0.72-1.6-1.6v-2.59c-0.73-0.51-1.21-1.35-1.21-2.31c0-1.55,1.26-2.81,2.81-2.81c1.55,0,2.81,1.26,2.81,2.81
		C497.81,178.64,497.33,179.48,496.6,179.99z"/>
	<path class="st2" d="M542.48,195.24c-5.23,0-9.48,4.24-9.48,9.48c0,5.23,4.24,9.48,9.48,9.48c5.23,0,9.48-4.24,9.48-9.48
		C551.96,199.48,547.72,195.24,542.48,195.24z M544.68,208.22c-0.45,0.49-1.09,0.82-1.81,0.94v0.6c0,0.34-0.26,0.6-0.59,0.6
		c-0.34,0-0.61-0.26-0.61-0.6v-0.59c-0.59-0.09-1.12-0.28-1.56-0.6c-0.45-0.32-0.77-0.69-0.97-1.11c-0.06-0.13-0.09-0.26-0.09-0.38
		c0-0.07,0.01-0.15,0.04-0.23c0.05-0.15,0.16-0.27,0.33-0.37c0.11-0.06,0.22-0.09,0.31-0.09c0.21,0,0.43,0.14,0.65,0.43
		c0.4,0.63,1.06,0.98,1.9,0.98c0.43,0,0.85-0.11,1.16-0.34c0.33-0.23,0.54-0.56,0.54-0.97c0-0.39-0.18-0.69-0.55-0.89
		c-0.25-0.14-0.53-0.23-0.96-0.33l-0.18-0.05c-0.94-0.18-1.66-0.47-2.16-0.86c-0.59-0.46-0.88-1.05-0.88-1.77
		c0-0.66,0.26-1.25,0.71-1.71c0.43-0.45,1.04-0.75,1.7-0.86v-0.53c0-0.16,0.06-0.31,0.18-0.43c0.11-0.11,0.26-0.17,0.43-0.17
		c0.16,0,0.3,0.06,0.41,0.17c0.11,0.12,0.17,0.27,0.17,0.43v0.53c0.92,0.14,1.67,0.59,2.09,1.28c0.05,0.09,0.08,0.18,0.08,0.27
		c0,0.04-0.01,0.08-0.01,0.14c-0.04,0.13-0.1,0.24-0.19,0.33c-0.11,0.11-0.28,0.17-0.46,0.17c-0.17,0-0.31-0.04-0.42-0.13
		c-0.29-0.26-0.54-0.43-0.75-0.53c-0.26-0.11-0.58-0.17-0.94-0.17c-0.43,0-0.82,0.11-1.11,0.32c-0.31,0.21-0.48,0.51-0.48,0.87
		c0,0.41,0.22,0.67,0.62,0.87c0.33,0.16,0.73,0.27,1.44,0.42c0.76,0.2,1.38,0.45,1.83,0.82c0.55,0.44,0.82,1.02,0.82,1.74
		C545.4,207.1,545.14,207.73,544.68,208.22z"/>
	<g>
		<g>
			<g>
				<g class="st11">
					<g>
						<linearGradient id="SVGID_1_" gradientUnits="userSpaceOnUse" x1="499.2245" y1="204.4152" x2="490.5659" y2="225.5068">
							<stop  offset="0" style="stop-color:#309FAA"/>
							<stop  offset="1" style="stop-color:#0C1F8E"/>
						</linearGradient>
						<polygon class="st5" points="522.67,217.55 493.89,234.26 464.99,217.55 493.89,200.85 						"/>
					</g>
					
						<linearGradient id="SVGID_00000072267881102707678070000012498616606812410801_" gradientUnits="userSpaceOnUse" x1="493.8937" y1="335.5482" x2="522.6716" y2="335.5482">
						<stop  offset="0" style="stop-color:#080420"/>
						<stop  offset="0.9975" style="stop-color:#0C1F8E"/>
					</linearGradient>
					<polygon style="fill:url(#SVGID_00000072267881102707678070000012498616606812410801_);" points="522.67,453.54 522.67,217.55 
						493.89,234.26 493.89,453.54 					"/>
					
						<linearGradient id="SVGID_00000121983577036063200130000005425612426630226860_" gradientUnits="userSpaceOnUse" x1="464.9904" y1="335.5484" x2="493.8937" y2="335.5484">
						<stop  offset="0" style="stop-color:#0C1F8E"/>
						<stop  offset="0.998" style="stop-color:#080420"/>
					</linearGradient>
					<polygon style="fill:url(#SVGID_00000121983577036063200130000005425612426630226860_);" points="493.89,453.54 493.89,234.26 
						464.99,217.55 464.99,453.54 					"/>
				</g>
			</g>
			
				<linearGradient id="SVGID_00000027582314370222740880000007868056483405639600_" gradientUnits="userSpaceOnUse" x1="496.2872" y1="261.7631" x2="486.576" y2="553.4914">
				<stop  offset="0" style="stop-color:#080420;stop-opacity:0"/>
				<stop  offset="0.2894" style="stop-color:#080420;stop-opacity:0.7"/>
				<stop  offset="0.9888" style="stop-color:#080420"/>
			</linearGradient>
			
				<rect x="464.99" y="217.55" style="fill:url(#SVGID_00000027582314370222740880000007868056483405639600_);" width="57.68" height="235.99"/>
			<g>
				
					<linearGradient id="SVGID_00000183221783825517508220000006127217929165856683_" gradientUnits="userSpaceOnUse" x1="493.2459" y1="135.7422" x2="492.5146" y2="213.9887">
					<stop  offset="0" style="stop-color:#F9FCFF;stop-opacity:0"/>
					<stop  offset="1" style="stop-color:#F9FCFF"/>
				</linearGradient>
				<polygon style="opacity:0.5608;fill:url(#SVGID_00000183221783825517508220000006127217929165856683_);" points="466.67,122.5 
					480.02,217.49 494.23,225.69 508.35,217.49 520.07,122.5 				"/>
				<polygon class="st17" points="480.02,217.49 494.14,209.28 508.35,217.49 494.23,225.69 				"/>
			</g>
		</g>
		<g>
			<g>
				<g class="st11">
					<g>
						
							<linearGradient id="SVGID_00000019653579677460775010000005606386142687350915_" gradientUnits="userSpaceOnUse" x1="545.5298" y1="233.2733" x2="540.6373" y2="245.1912">
							<stop  offset="0" style="stop-color:#309FAA"/>
							<stop  offset="1" style="stop-color:#0C1F8E"/>
						</linearGradient>
						<polygon style="fill:url(#SVGID_00000019653579677460775010000005606386142687350915_);" points="558.78,240.7 542.52,250.14 
							526.19,240.7 542.52,231.26 						"/>
					</g>
					
						<linearGradient id="SVGID_00000181784942773721449710000016073399214346946178_" gradientUnits="userSpaceOnUse" x1="542.5177" y1="347.1201" x2="558.7788" y2="347.1201">
						<stop  offset="0" style="stop-color:#080420"/>
						<stop  offset="0.9975" style="stop-color:#0C1F8E"/>
					</linearGradient>
					<polygon style="fill:url(#SVGID_00000181784942773721449710000016073399214346946178_);" points="558.78,453.54 558.78,240.7 
						542.52,250.14 542.52,453.54 					"/>
					
						<linearGradient id="SVGID_00000115514561090341545380000006606418361794052508_" gradientUnits="userSpaceOnUse" x1="526.1858" y1="347.1202" x2="542.5177" y2="347.1202">
						<stop  offset="0" style="stop-color:#0C1F8E"/>
						<stop  offset="0.998" style="stop-color:#080420"/>
					</linearGradient>
					<polygon style="fill:url(#SVGID_00000115514561090341545380000006606418361794052508_);" points="542.52,453.54 542.52,250.14 
						526.19,240.7 526.19,453.54 					"/>
				</g>
			</g>
			
				<linearGradient id="SVGID_00000063591707981190381870000000512038884151258554_" gradientUnits="userSpaceOnUse" x1="541.2413" y1="255.4211" x2="544.6774" y2="509.3102">
				<stop  offset="0" style="stop-color:#080420;stop-opacity:0"/>
				<stop  offset="0.2894" style="stop-color:#080420;stop-opacity:0.7"/>
				<stop  offset="0.9888" style="stop-color:#080420"/>
			</linearGradient>
			
				<rect x="526.19" y="240.7" style="fill:url(#SVGID_00000063591707981190381870000000512038884151258554_);" width="32.59" height="212.85"/>
			<g>
				
					<linearGradient id="SVGID_00000181806179728041866450000012166941513319492515_" gradientUnits="userSpaceOnUse" x1="541.4487" y1="178.0094" x2="540.8871" y2="238.0949">
					<stop  offset="0" style="stop-color:#F9FCFF;stop-opacity:0"/>
					<stop  offset="1" style="stop-color:#F9FCFF"/>
				</linearGradient>
				<polygon style="opacity:0.5608;fill:url(#SVGID_00000181806179728041866450000012166941513319492515_);" points="521.04,167.84 
					531.29,240.78 542.21,247.08 553.05,240.78 562.05,167.84 				"/>
				<polygon class="st17" points="531.29,240.78 542.14,234.48 553.05,240.78 542.21,247.08 				"/>
			</g>
		</g>
		<g>
			<g>
				<g class="st11">
					<g>
						
							<linearGradient id="SVGID_00000150062867934810545930000018370333148792934293_" gradientUnits="userSpaceOnUse" x1="531.1736" y1="281.6631" x2="527.1541" y2="291.4541">
							<stop  offset="0" style="stop-color:#309FAA"/>
							<stop  offset="1" style="stop-color:#0C1F8E"/>
						</linearGradient>
						<polygon style="fill:url(#SVGID_00000150062867934810545930000018370333148792934293_);" points="542.06,287.76 528.7,295.52 
							515.28,287.76 528.7,280.01 						"/>
					</g>
					
						<linearGradient id="SVGID_00000049917977883384439810000011511033425811332746_" gradientUnits="userSpaceOnUse" x1="528.699" y1="370.6526" x2="542.058" y2="370.6526">
						<stop  offset="0" style="stop-color:#080420"/>
						<stop  offset="0.9975" style="stop-color:#0C1F8E"/>
					</linearGradient>
					<polygon style="fill:url(#SVGID_00000049917977883384439810000011511033425811332746_);" points="542.06,453.54 542.06,287.76 
						528.7,295.52 528.7,453.54 					"/>
					
						<linearGradient id="SVGID_00000050660243150043476990000003023939206415105181_" gradientUnits="userSpaceOnUse" x1="515.2817" y1="370.6526" x2="528.699" y2="370.6526">
						<stop  offset="0" style="stop-color:#0C1F8E"/>
						<stop  offset="0.998" style="stop-color:#080420"/>
					</linearGradient>
					<polygon style="fill:url(#SVGID_00000050660243150043476990000003023939206415105181_);" points="528.7,453.54 528.7,295.52 
						515.28,287.76 515.28,453.54 					"/>
				</g>
			</g>
			
				<linearGradient id="SVGID_00000070813311718411894220000012717177772903899537_" gradientUnits="userSpaceOnUse" x1="529.6975" y1="316.0112" x2="525.0363" y2="563.8429">
				<stop  offset="0" style="stop-color:#080420;stop-opacity:0"/>
				<stop  offset="0.2894" style="stop-color:#080420;stop-opacity:0.7"/>
				<stop  offset="0.9888" style="stop-color:#080420"/>
			</linearGradient>
			
				<rect x="515.28" y="287.76" style="fill:url(#SVGID_00000070813311718411894220000012717177772903899537_);" width="26.78" height="165.78"/>
		</g>
	</g>
</g>
<g>
	<g>
		<g class="st11">
			<g>
				
					<linearGradient id="SVGID_00000149350840759117869380000007159377079335450512_" gradientUnits="userSpaceOnUse" x1="78.4169" y1="211.8377" x2="74.6512" y2="221.0105">
					<stop  offset="0" style="stop-color:#309FAA"/>
					<stop  offset="1" style="stop-color:#0C1F8E"/>
				</linearGradient>
				<polygon style="fill:url(#SVGID_00000149350840759117869380000007159377079335450512_);" points="88.61,217.55 76.1,224.82 
					63.53,217.55 76.1,210.29 				"/>
			</g>
			
				<linearGradient id="SVGID_00000134221033738785535660000003942318137156274050_" gradientUnits="userSpaceOnUse" x1="76.0985" y1="335.5474" x2="88.614" y2="335.5474">
				<stop  offset="0" style="stop-color:#080420"/>
				<stop  offset="0.9975" style="stop-color:#0C1F8E"/>
			</linearGradient>
			<polygon style="fill:url(#SVGID_00000134221033738785535660000003942318137156274050_);" points="88.61,453.54 88.61,217.55 
				76.1,224.82 76.1,453.54 			"/>
			
				<linearGradient id="SVGID_00000072993642290614438480000006174933828739966906_" gradientUnits="userSpaceOnUse" x1="63.5284" y1="335.5474" x2="76.0985" y2="335.5474">
				<stop  offset="0" style="stop-color:#0C1F8E"/>
				<stop  offset="0.998" style="stop-color:#080420"/>
			</linearGradient>
			<polygon style="fill:url(#SVGID_00000072993642290614438480000006174933828739966906_);" points="76.1,453.54 76.1,224.82 
				63.53,217.55 63.53,453.54 			"/>
		</g>
		
			<linearGradient id="SVGID_00000160905722969049111790000010994120448916528773_" gradientUnits="userSpaceOnUse" x1="77.8518" y1="242.9582" x2="76.2391" y2="326.82">
			<stop  offset="0" style="stop-color:#080420;stop-opacity:0"/>
			<stop  offset="0.2894" style="stop-color:#080420;stop-opacity:0.7"/>
			<stop  offset="0.9888" style="stop-color:#080420"/>
		</linearGradient>
		
			<rect x="63.53" y="217.55" style="fill:url(#SVGID_00000160905722969049111790000010994120448916528773_);" width="25.09" height="235.99"/>
		<g>
			
				<linearGradient id="SVGID_00000002356829662805677050000014266878242907448474_" gradientUnits="userSpaceOnUse" x1="75.5145" y1="172.7818" x2="75.1152" y2="215.4968">
				<stop  offset="0" style="stop-color:#F9FCFF;stop-opacity:0"/>
				<stop  offset="1" style="stop-color:#F9FCFF"/>
			</linearGradient>
			<polygon style="opacity:0.5608;fill:url(#SVGID_00000002356829662805677050000014266878242907448474_);" points="61,165.55 
				68.29,217.41 76.05,221.89 83.76,217.41 90.16,165.55 			"/>
			<polygon class="st17" points="68.29,217.41 76,212.93 83.76,217.41 76.05,221.89 			"/>
		</g>
	</g>
	<path class="st2" d="M83.33,184.47H68.87c-0.56,0-1.02,0.46-1.02,1.02v8c0,0.56,0.46,1.02,1.02,1.02h14.46
		c0.56,0,1.02-0.46,1.02-1.02v-8C84.35,184.93,83.89,184.47,83.33,184.47z M81.74,193.22c-0.44,0-0.83-0.21-1.08-0.53
		c-0.25,0.32-0.64,0.53-1.08,0.53c-0.77,0-1.39-0.62-1.39-1.39c0-0.77,0.62-1.39,1.39-1.39c0.44,0,0.83,0.21,1.08,0.53
		c0.25-0.32,0.64-0.53,1.08-0.53c0.76,0,1.39,0.62,1.39,1.39C83.13,192.6,82.51,193.22,81.74,193.22z M83.13,189.11H69.07v-2.48
		h14.06V189.11z"/>
	<g>
		<g>
			<g class="st11">
				<g>
					
						<linearGradient id="SVGID_00000139289001688549433870000008457020723548856714_" gradientUnits="userSpaceOnUse" x1="37.9194" y1="192.492" x2="31.2552" y2="208.7254">
						<stop  offset="0" style="stop-color:#309FAA"/>
						<stop  offset="1" style="stop-color:#0C1F8E"/>
					</linearGradient>
					<polygon style="fill:url(#SVGID_00000139289001688549433870000008457020723548856714_);" points="55.97,202.6 33.82,215.46 
						11.57,202.6 33.82,189.75 					"/>
				</g>
				
					<linearGradient id="SVGID_00000169541301198630835170000005653447276787168694_" gradientUnits="userSpaceOnUse" x1="33.8165" y1="328.0735" x2="55.9659" y2="328.0735">
					<stop  offset="0" style="stop-color:#080420"/>
					<stop  offset="0.9975" style="stop-color:#0C1F8E"/>
				</linearGradient>
				<polygon style="fill:url(#SVGID_00000169541301198630835170000005653447276787168694_);" points="55.97,453.54 55.97,202.6 
					33.82,215.46 33.82,453.54 				"/>
				
					<linearGradient id="SVGID_00000059293746104396632040000002216727561248706992_" gradientUnits="userSpaceOnUse" x1="11.5706" y1="328.0736" x2="33.8165" y2="328.0736">
					<stop  offset="0" style="stop-color:#0C1F8E"/>
					<stop  offset="0.998" style="stop-color:#080420"/>
				</linearGradient>
				<polygon style="fill:url(#SVGID_00000059293746104396632040000002216727561248706992_);" points="33.82,453.54 33.82,215.46 
					11.57,202.6 11.57,453.54 				"/>
			</g>
		</g>
		
			<linearGradient id="SVGID_00000075878904400043250950000017147201760458352024_" gradientUnits="userSpaceOnUse" x1="35.0241" y1="259.2111" x2="31.3546" y2="460.4236">
			<stop  offset="0" style="stop-color:#080420;stop-opacity:0"/>
			<stop  offset="0.2894" style="stop-color:#080420;stop-opacity:0.7"/>
			<stop  offset="0.9888" style="stop-color:#080420"/>
		</linearGradient>
		
			<rect x="11.57" y="202.6" style="fill:url(#SVGID_00000075878904400043250950000017147201760458352024_);" width="44.4" height="250.94"/>
		<g>
			
				<linearGradient id="SVGID_00000087373983729802192600000003886221198774932108_" gradientUnits="userSpaceOnUse" x1="32.7849" y1="128.5251" x2="32.1248" y2="199.1552">
				<stop  offset="0" style="stop-color:#F9FCFF;stop-opacity:0"/>
				<stop  offset="1" style="stop-color:#F9FCFF"/>
			</linearGradient>
			<polygon style="opacity:0.5608;fill:url(#SVGID_00000087373983729802192600000003886221198774932108_);" points="8.79,116.57 
				20.84,202.31 33.68,209.72 46.42,202.31 57,116.57 			"/>
			<polygon class="st17" points="20.84,202.31 33.59,194.9 46.42,202.31 33.68,209.72 			"/>
		</g>
	</g>
	<path class="st2" d="M41.82,173.97l-2.54-2.54c-0.54-0.54-1.29-0.71-1.98-0.52l-1.27-1.27c0.74-1.04,1.14-2.27,1.14-3.57
		c0-1.65-0.64-3.2-1.81-4.36c-1.16-1.17-2.71-1.81-4.36-1.81c-1.65,0-3.2,0.64-4.36,1.81c-2.41,2.41-2.41,6.32,0,8.73
		c1.17,1.17,2.72,1.81,4.36,1.81c1.3,0,2.54-0.4,3.57-1.14l1.27,1.27c-0.18,0.68-0.01,1.44,0.53,1.98l2.54,2.54
		c0.4,0.4,0.93,0.6,1.45,0.6c0.53,0,1.05-0.2,1.45-0.6C42.63,176.07,42.63,174.77,41.82,173.97z M28.1,168.97
		c-1.6-1.6-1.6-4.22,0-5.82c0.78-0.78,1.81-1.21,2.91-1.21c1.1,0,2.13,0.43,2.91,1.21c0.78,0.78,1.21,1.81,1.21,2.91
		c0,1.1-0.43,2.13-1.21,2.91c-0.78,0.78-1.81,1.21-2.91,1.21C29.91,170.18,28.88,169.75,28.1,168.97z"/>
	<g>
		<g>
			<g class="st11">
				<g>
					
						<linearGradient id="SVGID_00000171679173543209371360000002233026040614550406_" gradientUnits="userSpaceOnUse" x1="62.5094" y1="251.9469" x2="59.4158" y2="259.4826">
						<stop  offset="0" style="stop-color:#309FAA"/>
						<stop  offset="1" style="stop-color:#0C1F8E"/>
					</linearGradient>
					<polygon style="fill:url(#SVGID_00000171679173543209371360000002233026040614550406_);" points="70.89,256.64 60.6,262.61 
						50.28,256.64 60.6,250.67 					"/>
				</g>
				
					<linearGradient id="SVGID_00000129179292742761477570000010131337989865420162_" gradientUnits="userSpaceOnUse" x1="60.6048" y1="355.0921" x2="70.8868" y2="355.0921">
					<stop  offset="0" style="stop-color:#080420"/>
					<stop  offset="0.9975" style="stop-color:#0C1F8E"/>
				</linearGradient>
				<polygon style="fill:url(#SVGID_00000129179292742761477570000010131337989865420162_);" points="70.89,453.54 70.89,256.64 
					60.6,262.61 60.6,453.54 				"/>
				
					<linearGradient id="SVGID_00000051354487443028683460000004990572691000813488_" gradientUnits="userSpaceOnUse" x1="50.278" y1="355.0921" x2="60.6048" y2="355.0921">
					<stop  offset="0" style="stop-color:#0C1F8E"/>
					<stop  offset="1" style="stop-color:#080420"/>
				</linearGradient>
				<polygon style="fill:url(#SVGID_00000051354487443028683460000004990572691000813488_);" points="60.6,453.54 60.6,262.61 
					50.28,256.64 50.28,453.54 				"/>
			</g>
		</g>
		
			<linearGradient id="SVGID_00000116201289200701604850000007748534120041564069_" gradientUnits="userSpaceOnUse" x1="61.7638" y1="283.5304" x2="59.1102" y2="444.2653">
			<stop  offset="0" style="stop-color:#080420;stop-opacity:0"/>
			<stop  offset="0.2894" style="stop-color:#080420;stop-opacity:0.7"/>
			<stop  offset="0.9888" style="stop-color:#080420"/>
		</linearGradient>
		
			<rect x="50.28" y="256.64" style="fill:url(#SVGID_00000116201289200701604850000007748534120041564069_);" width="20.61" height="196.9"/>
		<g>
			
				<linearGradient id="SVGID_00000017507022717204347060000000161532156550770610_" gradientUnits="userSpaceOnUse" x1="60.1729" y1="218.2888" x2="59.8306" y2="254.9132">
				<stop  offset="0" style="stop-color:#F9FCFF;stop-opacity:0"/>
				<stop  offset="1" style="stop-color:#F9FCFF"/>
			</linearGradient>
			<polygon style="opacity:0.5608;fill:url(#SVGID_00000017507022717204347060000000161532156550770610_);" points="47.73,212.09 
				53.98,256.55 60.63,260.39 67.24,256.55 72.73,212.09 			"/>
			<polygon class="st17" points="53.98,256.55 60.59,252.71 67.24,256.55 60.63,260.39 			"/>
		</g>
	</g>
	<path class="st2" d="M64.5,244.91v-2.36c0-0.45,0-0.67,0.23-0.7c0.24-0.03,0.43,0.29,0.64,0.38c0.22,0.1,0.49,0.12,0.71,0
		c0.3-0.16,0.36-0.54,0.36-0.84c0-0.31-0.06-0.68-0.36-0.84c-0.22-0.12-0.49-0.1-0.71,0c-0.2,0.09-0.39,0.41-0.64,0.38
		c-0.23-0.03-0.23-0.24-0.23-0.7v-2.36h-2.36c-0.45,0-0.67,0-0.7-0.23c-0.03-0.24,0.29-0.43,0.38-0.64c0.1-0.22,0.12-0.49,0-0.71
		c-0.16-0.3-0.54-0.36-0.84-0.36c-0.31,0-0.68,0.06-0.84,0.36c-0.12,0.22-0.1,0.49,0,0.71c0.09,0.2,0.41,0.39,0.38,0.64
		c-0.03,0.23-0.24,0.23-0.7,0.23h-2.36v2.37c0,0.45,0,0.66,0.23,0.69c0.24,0.03,0.43-0.29,0.64-0.38c0.22-0.1,0.49-0.12,0.71,0
		c0.3,0.16,0.36,0.54,0.36,0.84c0,0.31-0.06,0.68-0.36,0.84c-0.22,0.12-0.49,0.1-0.71,0c-0.2-0.09-0.39-0.41-0.64-0.38
		c-0.23,0.03-0.23,0.24-0.23,0.69v2.37H64.5z"/>
</g>
<g>
	<polyline class="st42" points="62.55,286.54 84.25,274.01 84.29,286.83 62.59,299.36 62.55,286.54 	"/>
	<polygon class="st42" points="84.4,258.83 84.42,270.49 70.95,278.26 70.94,273.5 70.94,266.6 	"/>
	<polyline class="st42" points="63.59,277.08 67.73,274.68 67.75,279.45 63.6,281.84 63.59,277.08 	"/>
	<polygon class="st42" points="86.41,267.4 106.59,255.75 106.63,269.67 86.41,281.34 	"/>
	<polygon class="st42" points="102.7,283.19 102.72,289.58 102.72,289.58 102.72,290.74 92.34,296.73 92.34,294.07 92.32,289.18 	
		"/>
</g>
<g>
	<g class="st11">
		
			<linearGradient id="SVGID_00000071517222857799759720000005817338101530999996_" gradientUnits="userSpaceOnUse" x1="366.904" y1="317.2589" x2="333.6927" y2="384.0464" gradientTransform="matrix(-1 0 0 1 515.5264 0)">
			<stop  offset="0" style="stop-color:#309FAA"/>
			<stop  offset="1" style="stop-color:#0C1F8E"/>
		</linearGradient>
		<polygon style="fill:url(#SVGID_00000071517222857799759720000005817338101530999996_);" points="141.25,453.54 20.52,383.46 
			181.19,290.19 342.56,383.46 221.31,453.54 		"/>
		
			<linearGradient id="SVGID_00000140723499541633532870000001319087046445104805_" gradientUnits="userSpaceOnUse" x1="172.9643" y1="418.5033" x2="334.3329" y2="418.5033" gradientTransform="matrix(-1 0 0 1 515.5264 0)">
			<stop  offset="0" style="stop-color:#0C1F8E"/>
			<stop  offset="0.998" style="stop-color:#080420"/>
		</linearGradient>
		<polygon style="fill:url(#SVGID_00000140723499541633532870000001319087046445104805_);" points="221.31,453.54 342.56,383.46 
			342.56,453.54 		"/>
	</g>
</g>
<g>
	<g class="st11">
		
			<linearGradient id="SVGID_00000088102923140750541940000003758146487785778854_" gradientUnits="userSpaceOnUse" x1="283.4248" y1="226.3653" x2="239.2177" y2="334.0495" gradientTransform="matrix(-1 0 0 1 515.5264 0)">
			<stop  offset="0" style="stop-color:#309FAA"/>
			<stop  offset="1" style="stop-color:#0C1F8E"/>
		</linearGradient>
		<polygon style="fill:url(#SVGID_00000088102923140750541940000003758146487785778854_);" points="112.39,293.44 259.32,378.73 
			406.89,293.44 259.32,208.15 		"/>
		
			<linearGradient id="SVGID_00000091710470788128216350000000664293917762712749_" gradientUnits="userSpaceOnUse" x1="256.2081" y1="373.4924" x2="403.1357" y2="373.4924" gradientTransform="matrix(-1 0 0 1 515.5264 0)">
			<stop  offset="0" style="stop-color:#080420"/>
			<stop  offset="0.9975" style="stop-color:#0C1F8E"/>
		</linearGradient>
		<polygon style="fill:url(#SVGID_00000091710470788128216350000000664293917762712749_);" points="112.39,453.54 112.39,293.44 
			259.32,378.73 259.32,453.54 		"/>
	</g>
</g>
<g>
	<g class="st11">
		<g>
			
				<linearGradient id="SVGID_00000082364972757274227440000014640717841881654674_" gradientUnits="userSpaceOnUse" x1="387.9418" y1="371.4105" x2="362.1349" y2="416.1093" gradientTransform="matrix(-1 0 0 1 515.5264 0)">
				<stop  offset="0" style="stop-color:#309FAA"/>
				<stop  offset="0.4413" style="stop-color:#0C1F8E"/>
			</linearGradient>
			<polygon style="fill:url(#SVGID_00000082364972757274227440000014640717841881654674_);" points="73.93,399.27 143.52,439.67 
				213.41,399.27 143.52,358.88 			"/>
		</g>
		
			<linearGradient id="SVGID_00000059310288949367165300000008487929014187890823_" gradientUnits="userSpaceOnUse" x1="302.1142" y1="426.4081" x2="372.0073" y2="426.4081" gradientTransform="matrix(-1 0 0 1 515.5264 0)">
			<stop  offset="0" style="stop-color:#0C1F8E"/>
			<stop  offset="0.998" style="stop-color:#080420"/>
		</linearGradient>
		<polygon style="fill:url(#SVGID_00000059310288949367165300000008487929014187890823_);" points="143.52,453.54 143.52,439.67 
			213.41,399.27 213.41,453.54 		"/>
	</g>
</g>
<g>
	<g class="st11">
		<g>
			
				<linearGradient id="SVGID_00000078739270546924802250000002860464326749758620_" gradientUnits="userSpaceOnUse" x1="364.7556" y1="367.5461" x2="338.9488" y2="412.245" gradientTransform="matrix(-1 0 0 1 515.5264 0)">
				<stop  offset="0" style="stop-color:#309FAA"/>
				<stop  offset="0.4413" style="stop-color:#0C1F8E"/>
			</linearGradient>
			<polygon style="fill:url(#SVGID_00000078739270546924802250000002860464326749758620_);" points="97.12,395.41 166.71,435.81 
				236.6,395.41 166.71,355.01 			"/>
		</g>
		
			<linearGradient id="SVGID_00000041257309303858572780000001700970040261668227_" gradientUnits="userSpaceOnUse" x1="278.928" y1="424.4759" x2="348.8211" y2="424.4759" gradientTransform="matrix(-1 0 0 1 515.5264 0)">
			<stop  offset="0" style="stop-color:#0C1F8E"/>
			<stop  offset="0.998" style="stop-color:#080420"/>
		</linearGradient>
		<polygon style="fill:url(#SVGID_00000041257309303858572780000001700970040261668227_);" points="166.71,453.54 166.71,435.81 
			236.6,395.41 236.6,453.54 		"/>
	</g>
</g>
<g>
	<g class="st11">
		
			<linearGradient id="SVGID_00000136376433744967292750000002732790134101735585_" gradientUnits="userSpaceOnUse" x1="338.44" y1="359.774" x2="317.502" y2="410.7768" gradientTransform="matrix(-1 0 0 1 515.5264 0)">
			<stop  offset="0" style="stop-color:#309FAA"/>
			<stop  offset="1" style="stop-color:#0C1F8E"/>
		</linearGradient>
		<polygon style="fill:url(#SVGID_00000136376433744967292750000002732790134101735585_);" points="120.39,391.54 189.98,431.94 
			259.87,391.54 189.98,351.15 		"/>
		
			<linearGradient id="SVGID_00000062152727378442119440000012672955075204935071_" gradientUnits="userSpaceOnUse" x1="108.6405" y1="373.493" x2="325.5493" y2="373.493" gradientTransform="matrix(-1 0 0 1 515.5264 0)">
			<stop  offset="0" style="stop-color:#0C1F8E"/>
			<stop  offset="0.998" style="stop-color:#080420"/>
		</linearGradient>
		<polygon style="fill:url(#SVGID_00000062152727378442119440000012672955075204935071_);" points="189.98,453.54 189.98,431.94 
			259.32,391.86 259.32,378.73 406.89,293.44 406.89,453.54 		"/>
	</g>
</g>
<linearGradient id="SVGID_00000127755519163524329220000006022547515428135850_" gradientUnits="userSpaceOnUse" x1="325.5493" y1="418.5027" x2="495.0016" y2="418.5027" gradientTransform="matrix(-1 0 0 1 515.5264 0)">
	<stop  offset="0" style="stop-color:#080420"/>
	<stop  offset="0.9975" style="stop-color:#0C1F8E"/>
</linearGradient>
<polygon style="fill:url(#SVGID_00000127755519163524329220000006022547515428135850_);" points="20.52,453.54 20.52,383.46 
	73.93,414.46 73.93,399.27 97.12,412.73 97.12,395.41 120.39,408.92 120.39,391.54 189.98,431.94 189.98,453.54 "/>
<g>
	<path class="st54" d="M352.26,142.53l44.31,25.58c1.17,0.67,2.11,2.3,2.1,3.64l-0.19,67.93c0,1.34-0.95,1.88-2.12,1.21
		l-44.31-25.58c-1.17-0.67-2.11-2.3-2.1-3.64l0.19-67.93C350.14,142.4,351.09,141.86,352.26,142.53"/>
	<g>
		<g>
			<path class="st55" d="M390.85,171.49c1.19,0.69,2.15,2.36,2.15,3.73c0,1.37-0.98,1.92-2.17,1.23c-1.19-0.69-2.15-2.36-2.15-3.73
				C388.69,171.35,389.66,170.8,390.85,171.49"/>
			<path class="st55" d="M356.96,153.04l26.33,15.2c0.66,0.38,1.19,1.3,1.18,2.05c0,0.75-0.54,1.05-1.19,0.67l-26.33-15.2
				c-0.65-0.38-1.18-1.29-1.18-2.04C355.77,152.97,356.31,152.66,356.96,153.04"/>
			<path class="st55" d="M356.94,159.16l26.33,15.2c0.66,0.38,1.19,1.3,1.18,2.05c0,0.75-0.54,1.06-1.19,0.68l-26.33-15.2
				c-0.65-0.38-1.18-1.29-1.18-2.05C355.76,159.09,356.29,158.78,356.94,159.16"/>
			<path class="st55" d="M377.97,177.44l5.29,3.05c0.66,0.38,1.19,1.3,1.18,2.05c0,0.75-0.54,1.05-1.19,0.67l-5.29-3.05
				c-0.66-0.38-1.19-1.3-1.18-2.05C376.78,177.36,377.32,177.06,377.97,177.44"/>
			<path class="st55" d="M373.49,174.85l0.49,0.28c0.66,0.38,1.18,1.29,1.18,2.05c0,0.75-0.53,1.06-1.19,0.68l-0.49-0.28
				c-0.65-0.38-1.18-1.29-1.18-2.04C372.31,174.78,372.84,174.48,373.49,174.85"/>
			<path class="st55" d="M390.79,193.17c1.19,0.69,2.15,2.35,2.15,3.73c0,1.37-0.98,1.92-2.17,1.23c-1.19-0.69-2.15-2.35-2.15-3.73
				C388.63,193.03,389.6,192.48,390.79,193.17"/>
			<path class="st55" d="M356.9,174.72l26.33,15.2c0.66,0.38,1.19,1.3,1.18,2.05c0,0.75-0.54,1.06-1.19,0.68l-26.33-15.2
				c-0.65-0.38-1.18-1.29-1.18-2.05C355.71,174.64,356.25,174.34,356.9,174.72"/>
			<path class="st55" d="M356.88,180.84l26.33,15.2c0.66,0.38,1.19,1.3,1.18,2.05c0,0.75-0.54,1.05-1.19,0.67l-26.33-15.2
				c-0.65-0.38-1.18-1.29-1.18-2.04C355.7,180.77,356.23,180.47,356.88,180.84"/>
			<path class="st55" d="M377.91,199.12l5.29,3.05c0.66,0.38,1.19,1.3,1.18,2.05c0,0.75-0.54,1.06-1.19,0.68l-5.29-3.05
				c-0.66-0.38-1.19-1.3-1.18-2.05C376.72,199.04,377.25,198.74,377.91,199.12"/>
			<path class="st55" d="M373.43,196.53l0.49,0.28c0.66,0.38,1.18,1.29,1.18,2.05c0,0.75-0.53,1.06-1.19,0.68l-0.49-0.28
				c-0.65-0.38-1.18-1.29-1.18-2.05C372.24,196.46,372.78,196.15,373.43,196.53"/>
			<path class="st55" d="M390.73,214.85c1.19,0.69,2.15,2.35,2.15,3.73c0,1.37-0.98,1.92-2.17,1.23c-1.19-0.69-2.15-2.36-2.15-3.73
				C388.57,214.71,389.54,214.16,390.73,214.85"/>
			<path class="st55" d="M356.84,196.4l26.33,15.2c0.66,0.38,1.19,1.3,1.18,2.05c0,0.75-0.54,1.05-1.19,0.67l-26.33-15.2
				c-0.65-0.38-1.18-1.29-1.18-2.04C355.65,196.33,356.18,196.02,356.84,196.4"/>
			<path class="st55" d="M356.82,202.52l26.33,15.2c0.66,0.38,1.19,1.3,1.18,2.05c0,0.75-0.54,1.06-1.19,0.68l-26.33-15.2
				c-0.65-0.38-1.18-1.29-1.18-2.05C355.63,202.45,356.17,202.14,356.82,202.52"/>
			<path class="st55" d="M377.85,220.8l5.29,3.05c0.66,0.38,1.19,1.3,1.18,2.05c0,0.75-0.54,1.05-1.19,0.67l-5.29-3.05
				c-0.66-0.38-1.19-1.29-1.18-2.05C376.66,220.72,377.19,220.42,377.85,220.8"/>
			<path class="st55" d="M373.37,218.21l0.49,0.28c0.66,0.38,1.18,1.29,1.18,2.05c0,0.75-0.53,1.06-1.19,0.68l-0.49-0.28
				c-0.65-0.38-1.18-1.29-1.18-2.04C372.18,218.14,372.72,217.84,373.37,218.21"/>
		</g>
	</g>
</g>
<g>
	<g>
		<g class="st11">
			<g>
				<polygon class="st2" points="302.06,286.73 278.08,272.79 278.09,275.56 302.07,289.5 				"/>
			</g>
			<g>
				<path class="st2" d="M319.99,242.52l-2.24,2.32l7.72,17.57c0.86,1.97,0.62,4.78-0.67,7.72c-1.29,2.94-3.35,5.39-5.65,6.72
					l-17.08,9.86l0.01,2.77l17.08-9.86c3.07-1.77,5.93-5.18,7.65-9.1c1.72-3.92,2.05-7.82,0.9-10.44L319.99,242.52z"/>
			</g>
			<g>
				<polygon class="st56" points="319.99,242.52 296,228.59 293.76,230.91 317.75,244.84 				"/>
			</g>
			
				<linearGradient id="SVGID_00000083807864331763625450000010691288576822923664_" gradientUnits="userSpaceOnUse" x1="189.5497" y1="258.8176" x2="237.4455" y2="258.8176" gradientTransform="matrix(-1 0 0 1 515.5264 0)">
				<stop  offset="0.0355" style="stop-color:#C8D6EE"/>
				<stop  offset="1" style="stop-color:#D6E0F2"/>
			</linearGradient>
			<path style="fill:url(#SVGID_00000083807864331763625450000010691288576822923664_);" d="M295.16,262.93
				c0.28-0.16,0.55-0.34,0.82-0.53c0.02-0.01,0.03-0.02,0.05-0.04c0.26-0.19,0.52-0.39,0.78-0.61c0.02-0.01,0.03-0.03,0.05-0.04
				c0.26-0.22,0.51-0.46,0.76-0.71c0,0,0,0,0,0c0.25-0.25,0.49-0.52,0.73-0.8c0.01-0.01,0.02-0.02,0.03-0.03
				c0.22-0.27,0.44-0.54,0.65-0.83c0.04-0.05,0.07-0.1,0.11-0.15c0.14-0.2,0.28-0.41,0.41-0.62c0.09-0.14,0.18-0.28,0.26-0.42
				c0.16-0.27,0.32-0.55,0.47-0.83c0.01-0.02,0.02-0.04,0.03-0.06c0.18-0.34,0.34-0.69,0.5-1.04c0.16-0.36,0.3-0.72,0.42-1.07
				c0.01-0.02,0.01-0.03,0.02-0.05c0.12-0.34,0.23-0.69,0.32-1.02c0-0.02,0.01-0.04,0.01-0.05c0.09-0.34,0.16-0.67,0.22-1
				c0-0.02,0.01-0.03,0.01-0.04c0.06-0.33,0.1-0.65,0.13-0.96c0-0.01,0-0.03,0-0.04c0.03-0.31,0.04-0.62,0.03-0.92
				c0-0.02,0-0.03,0-0.05c-0.01-0.3-0.03-0.59-0.06-0.87c0-0.01,0-0.03-0.01-0.04c-0.04-0.27-0.09-0.53-0.16-0.78
				c-0.01-0.02-0.01-0.05-0.02-0.07c-0.07-0.26-0.16-0.51-0.26-0.75l-7.72-17.57l23.98,13.94l7.72,17.57
				c0.04,0.09,0.08,0.19,0.11,0.28c0.05,0.12,0.09,0.25,0.13,0.38c0.01,0.03,0.01,0.06,0.02,0.09c0.01,0.02,0.01,0.05,0.02,0.07
				c0.02,0.07,0.04,0.13,0.05,0.2c0.03,0.11,0.05,0.22,0.07,0.34c0.01,0.08,0.03,0.16,0.04,0.25c0,0.01,0,0.03,0.01,0.04
				c0,0.01,0,0.03,0.01,0.04c0.01,0.11,0.02,0.21,0.03,0.32c0.01,0.1,0.02,0.21,0.02,0.32c0,0.06,0,0.12,0,0.19
				c0,0.02,0,0.03,0,0.05c0,0.03,0,0.05,0,0.08c0,0.1,0,0.21,0,0.32c0,0.11-0.01,0.21-0.01,0.32c0,0.07-0.01,0.14-0.02,0.2
				c0,0.01,0,0.03,0,0.04c0,0.02,0,0.05-0.01,0.07c-0.01,0.11-0.02,0.22-0.04,0.33c-0.01,0.11-0.03,0.22-0.05,0.33
				c-0.01,0.08-0.03,0.15-0.04,0.23c0,0.01,0,0.03-0.01,0.04c0,0.02-0.01,0.05-0.01,0.07c-0.02,0.12-0.05,0.23-0.07,0.35
				c-0.03,0.12-0.05,0.24-0.08,0.36c-0.02,0.07-0.04,0.15-0.06,0.22c0,0.02-0.01,0.03-0.01,0.05c-0.01,0.03-0.01,0.06-0.02,0.09
				c-0.03,0.12-0.07,0.24-0.11,0.36c-0.04,0.12-0.08,0.24-0.12,0.36c-0.02,0.07-0.05,0.14-0.07,0.21c-0.01,0.02-0.01,0.03-0.02,0.05
				c-0.01,0.03-0.02,0.06-0.03,0.09c-0.04,0.12-0.09,0.23-0.13,0.35c-0.04,0.11-0.09,0.23-0.14,0.34c-0.04,0.1-0.08,0.19-0.12,0.29
				c-0.01,0.02-0.02,0.04-0.02,0.05c-0.05,0.12-0.1,0.23-0.16,0.35c-0.06,0.12-0.12,0.24-0.18,0.36c-0.05,0.09-0.1,0.19-0.14,0.28
				c-0.01,0.02-0.02,0.04-0.03,0.06c-0.01,0.02-0.02,0.05-0.04,0.07c-0.1,0.19-0.21,0.39-0.32,0.57c-0.04,0.06-0.08,0.12-0.12,0.19
				c-0.08,0.14-0.17,0.28-0.26,0.42c-0.07,0.1-0.13,0.21-0.19,0.31c-0.07,0.11-0.15,0.21-0.22,0.31c-0.04,0.05-0.07,0.1-0.1,0.15
				c-0.03,0.04-0.05,0.07-0.08,0.11c-0.09,0.12-0.18,0.24-0.28,0.36c-0.08,0.11-0.17,0.21-0.26,0.32c-0.01,0.01-0.02,0.03-0.04,0.04
				c-0.01,0.01-0.02,0.02-0.03,0.03c-0.06,0.07-0.13,0.15-0.19,0.22c-0.09,0.1-0.17,0.19-0.26,0.29c-0.09,0.1-0.18,0.19-0.27,0.29
				c0,0,0,0,0,0c0,0,0,0,0,0c-0.09,0.09-0.18,0.18-0.28,0.27c-0.1,0.09-0.2,0.19-0.3,0.28c-0.06,0.05-0.12,0.11-0.18,0.16
				c-0.02,0.01-0.03,0.03-0.05,0.04c-0.02,0.02-0.05,0.04-0.07,0.06c-0.1,0.09-0.2,0.17-0.31,0.25c-0.1,0.08-0.2,0.16-0.31,0.23
				c-0.03,0.02-0.06,0.04-0.09,0.07c-0.02,0.01-0.03,0.02-0.05,0.04c-0.05,0.04-0.1,0.08-0.16,0.11c-0.1,0.07-0.2,0.13-0.3,0.2
				c-0.1,0.06-0.2,0.12-0.3,0.18c-0.02,0.01-0.05,0.03-0.07,0.04l-17.08,9.86l-23.98-13.94L295.16,262.93z"/>
		</g>
		<g class="st11">
			<g class="st11">
				<path class="st58" d="M241.25,109.76l2.4-1.39c-0.19-0.11-0.38-0.2-0.56-0.28l-2.4,1.39
					C240.87,109.56,241.06,109.65,241.25,109.76"/>
				<path class="st59" d="M240.69,109.48l2.4-1.39c-0.16-0.07-0.32-0.12-0.47-0.16l-2.4,1.39
					C240.37,109.36,240.53,109.41,240.69,109.48"/>
				<path class="st60" d="M240.22,109.32l2.4-1.39c-0.12-0.03-0.24-0.06-0.35-0.08l-2.4,1.39
					C239.98,109.26,240.1,109.28,240.22,109.32"/>
				<path class="st61" d="M239.86,109.24l2.4-1.39c-0.1-0.02-0.2-0.03-0.3-0.03l-2.4,1.39
					C239.66,109.21,239.76,109.22,239.86,109.24"/>
				<path class="st62" d="M239.56,109.21l2.4-1.39c-0.09,0-0.18,0-0.27,0l-2.4,1.39C239.38,109.21,239.47,109.21,239.56,109.21"/>
				<path class="st63" d="M239.3,109.21l2.4-1.39c-0.08,0.01-0.16,0.01-0.24,0.03l-2.4,1.39
					C239.13,109.23,239.21,109.22,239.3,109.21"/>
				<path class="st64" d="M239.05,109.24l2.4-1.39c-0.08,0.01-0.15,0.03-0.23,0.05l-2.4,1.39
					C238.9,109.27,238.98,109.25,239.05,109.24"/>
				<path class="st65" d="M238.83,109.29l2.4-1.39c-0.07,0.02-0.14,0.05-0.21,0.07l-2.4,1.39
					C238.68,109.34,238.75,109.31,238.83,109.29"/>
				<path class="st66" d="M238.61,109.37l2.4-1.39c-0.07,0.03-0.14,0.06-0.2,0.1l-2.4,1.39
					C238.48,109.43,238.55,109.4,238.61,109.37"/>
				<path class="st67" d="M238.41,109.47l2.4-1.39c-0.01,0-0.01,0.01-0.02,0.01l-2.4,1.39C238.4,109.47,238.41,109.47,238.41,109.47
					"/>
			</g>
			<g>
				<g>
					<path class="st17" d="M357.28,265.19l-120.3-69.45l-0.03,10.17c-0.01,2.55,1.79,5.66,4.01,6.95l112.25,64.81
						c2.22,1.28,4.03,0.25,4.04-2.3L357.28,265.19z"/>
				</g>
			</g>
			<g>
				<polygon class="st68" points="357.28,265.19 359.68,263.8 239.38,194.34 236.98,195.74 				"/>
			</g>
			
				<linearGradient id="SVGID_00000007416142509502484150000017527255423190847408_" gradientUnits="userSpaceOnUse" x1="155.8511" y1="270.8706" x2="159.4521" y2="270.8706" gradientTransform="matrix(-1 0 0 1 515.5264 0)">
				<stop  offset="0" style="stop-color:#CDEFFB"/>
				<stop  offset="1" style="stop-color:#89DAF4"/>
			</linearGradient>
			<path style="fill:url(#SVGID_00000007416142509502484150000017527255423190847408_);" d="M357.25,275.36l0.03-10.17l2.4-1.39
				l-0.03,10.17c0,0.48-0.07,0.9-0.18,1.26c-0.2,0.61-0.54,1.06-0.99,1.32l-2.4,1.39C356.8,277.52,357.24,276.63,357.25,275.36z"/>
			<g>
				<path class="st2" d="M241.25,109.76c-2.22-1.28-4.03-0.25-4.04,2.3l-0.24,83.68l120.3,69.45l0.24-83.68
					c0.01-2.55-1.79-5.66-4.01-6.95L241.25,109.76z"/>
			</g>
			<path class="st1" d="M240.79,108.08c0.73-0.42,1.74-0.37,2.86,0.28l112.25,64.81c0.21,0.12,0.42,0.27,0.63,0.42
				c0.03,0.03,0.07,0.05,0.1,0.08c0.19,0.15,0.38,0.32,0.57,0.5c0.02,0.01,0.03,0.03,0.05,0.04c0.03,0.03,0.06,0.06,0.09,0.09
				c0.09,0.09,0.18,0.19,0.27,0.29c0.03,0.03,0.06,0.06,0.09,0.09c0.02,0.03,0.04,0.06,0.07,0.08c0.05,0.06,0.11,0.13,0.16,0.19
				c0.03,0.04,0.07,0.08,0.1,0.12c0.03,0.04,0.05,0.07,0.08,0.11c0.04,0.05,0.08,0.1,0.11,0.15c0.02,0.03,0.05,0.07,0.08,0.1
				c0.04,0.06,0.08,0.12,0.12,0.18c0.03,0.04,0.05,0.08,0.08,0.12c0.01,0.02,0.02,0.03,0.03,0.05c0.07,0.11,0.14,0.23,0.21,0.34
				c0,0.01,0.01,0.02,0.01,0.02c0.01,0.02,0.03,0.05,0.04,0.07c0.05,0.08,0.09,0.16,0.14,0.24c0.02,0.04,0.04,0.08,0.06,0.12
				c0.02,0.04,0.04,0.08,0.06,0.12c0.02,0.03,0.04,0.07,0.05,0.1c0.05,0.09,0.09,0.19,0.13,0.29c0.01,0.02,0.02,0.03,0.02,0.05
				c0,0,0,0.01,0.01,0.01c0.05,0.12,0.1,0.24,0.15,0.36c0.01,0.02,0.02,0.04,0.02,0.07c0.02,0.04,0.03,0.09,0.05,0.13
				c0.02,0.06,0.04,0.12,0.06,0.18c0.02,0.05,0.03,0.1,0.04,0.14c0.02,0.06,0.03,0.11,0.05,0.17c0.01,0.03,0.02,0.07,0.03,0.1
				c0.02,0.06,0.03,0.12,0.05,0.18c0.02,0.07,0.04,0.14,0.05,0.21c0.01,0.02,0.01,0.05,0.02,0.07c0.01,0.05,0.02,0.1,0.03,0.15
				c0.02,0.11,0.04,0.21,0.06,0.32c0,0.03,0.01,0.06,0.02,0.09c0,0.03,0,0.05,0.01,0.08c0.03,0.24,0.05,0.47,0.05,0.7l-0.24,83.68
				l-2.4,1.39l0.24-83.68c0-0.23-0.02-0.47-0.05-0.7c-0.01-0.06-0.01-0.11-0.02-0.17c-0.02-0.11-0.03-0.21-0.06-0.32
				c-0.01-0.07-0.03-0.15-0.04-0.22c-0.02-0.07-0.03-0.14-0.05-0.21c-0.02-0.1-0.05-0.19-0.08-0.29c-0.02-0.06-0.03-0.11-0.05-0.17
				c-0.03-0.11-0.07-0.21-0.11-0.32c-0.02-0.04-0.03-0.09-0.05-0.13c-0.06-0.15-0.11-0.3-0.18-0.44c-0.01-0.02-0.02-0.03-0.02-0.05
				c-0.06-0.13-0.12-0.26-0.18-0.39c-0.02-0.04-0.04-0.08-0.06-0.12c-0.06-0.12-0.13-0.24-0.2-0.36c-0.01-0.02-0.03-0.05-0.04-0.07
				c-0.08-0.14-0.17-0.28-0.25-0.41c-0.03-0.04-0.05-0.08-0.08-0.12c-0.06-0.1-0.13-0.19-0.2-0.29c-0.04-0.05-0.07-0.1-0.11-0.15
				c-0.06-0.08-0.12-0.16-0.18-0.23c-0.05-0.06-0.1-0.13-0.16-0.19c-0.05-0.06-0.1-0.12-0.15-0.17c-0.09-0.1-0.18-0.19-0.27-0.29
				c-0.04-0.05-0.09-0.09-0.13-0.13c-0.18-0.18-0.37-0.34-0.57-0.5c-0.03-0.03-0.07-0.05-0.1-0.08c-0.2-0.16-0.41-0.3-0.63-0.42
				l-112.25-64.81c-1.12-0.65-2.13-0.71-2.86-0.28L240.79,108.08z"/>
			<g>
				<path class="st70" d="M297.32,234.74c-1.56-0.9-2.82-0.17-2.83,1.61c-0.01,1.79,1.25,3.96,2.81,4.86
					c1.55,0.9,2.82,0.18,2.82-1.61C300.13,237.82,298.87,235.64,297.32,234.74z"/>
			</g>
			<g>
				<polygon class="st1" points="242.44,116.47 242.23,190.9 352.07,254.31 352.28,179.88 				"/>
			</g>
		</g>
	</g>
	<g>
		<g class="st11">
			<g>
				<path class="st17" d="M277.06,196.92l-0.39-2.89l1.68-0.91l-2.32-1.73l-1.03-3.02l-1.04,1.82l-2.33-0.95l1.68,2.85l-0.4,2.43
					l2.08-0.05L277.06,196.92 M268.32,191.87l-0.39-2.89l1.69-0.91l-2.32-1.73l-1.03-3.02l-1.04,1.82l-2.33-0.95l1.67,2.85
					l-0.4,2.43l2.08-0.05L268.32,191.87 M259.58,186.83l-0.39-2.89l1.69-0.91l-2.32-1.73l-1.03-3.02l-1.05,1.82l-2.32-0.95
					l1.67,2.85l-0.4,2.43l2.08-0.05L259.58,186.83 M250.85,181.78l-0.39-2.89l1.68-0.91l-2.32-1.73l-1.04-3.02l-1.04,1.82
					l-2.33-0.95l1.68,2.85l-0.4,2.43l2.08-0.05L250.85,181.78 M242.11,176.74l-0.39-2.89l1.69-0.91l-2.32-1.73l-1.03-3.02
					l-1.04,1.82l-2.33-0.95l1.67,2.85l-0.4,2.43l2.08-0.05L242.11,176.74 M234.2,159.71l46.69,26.96c1.13,0.65,2.05,2.24,2.04,3.54
					l-0.04,13.55c0,1.29-0.92,1.82-2.06,1.17l-46.69-26.96c-1.13-0.65-2.05-2.24-2.04-3.53l0.04-13.55
					C232.14,159.58,233.07,159.06,234.2,159.71"/>
				<polyline class="st0" points="275,188.37 276.03,191.39 278.36,193.12 276.67,194.03 277.06,196.92 274.98,194.47 
					272.91,194.52 273.31,192.09 271.63,189.24 273.96,190.19 275,188.37 				"/>
				<polyline class="st0" points="266.27,183.33 267.3,186.34 269.62,188.08 267.93,188.98 268.32,191.87 266.25,189.42 
					264.16,189.47 264.57,187.04 262.9,184.19 265.22,185.15 266.27,183.33 				"/>
				<polyline class="st0" points="257.53,178.28 258.56,181.3 260.88,183.03 259.19,183.94 259.58,186.83 257.51,184.38 
					255.43,184.43 255.83,182 254.16,179.15 256.48,180.1 257.53,178.28 				"/>
				<polyline class="st0" points="248.79,173.23 249.82,176.26 252.14,177.98 250.46,178.9 250.85,181.78 248.77,179.33 
					246.69,179.39 247.1,176.96 245.42,174.1 247.74,175.06 248.79,173.23 				"/>
				<polyline class="st71" points="240.05,168.19 241.08,171.21 243.41,172.94 241.72,173.85 242.11,176.74 240.03,174.29 
					237.95,174.34 238.35,171.91 236.68,169.06 239.01,170.01 240.05,168.19 				"/>
			</g>
		</g>
	</g>
	<g>
		<path class="st17" d="M299.29,161.27l40.55,23.41c1.06,0.61,1.91,2.09,1.9,3.3L341.61,236c0,1.21-0.86,1.71-1.92,1.1l-40.55-23.41
			c-1.06-0.61-1.91-2.09-1.91-3.31l0.14-48.02C297.37,161.15,298.23,160.66,299.29,161.27"/>
		<g>
			<path class="st72" d="M335.29,228.41c0.41,0.24,0.74,0.05,0.74-0.42c0-0.47-0.32-1.03-0.73-1.27l-3.27-1.89
				c-0.41-0.24-0.74-0.05-0.74,0.42c0,0.47,0.32,1.03,0.73,1.27L335.29,228.41"/>
			<path class="st72" d="M329.55,225.09c0.41,0.24,0.74,0.05,0.74-0.42c0-0.47-0.32-1.03-0.73-1.27l-0.3-0.17
				c-0.41-0.24-0.74-0.05-0.74,0.42s0.32,1.03,0.73,1.27L329.55,225.09"/>
			<path class="st72" d="M335.3,224.62c0.41,0.24,0.74,0.05,0.74-0.42c0-0.46-0.32-1.03-0.73-1.27l-9.05-5.22
				c-0.41-0.24-0.74-0.04-0.74,0.42c0,0.47,0.32,1.03,0.73,1.27L335.3,224.62"/>
			<path class="st72" d="M323.66,217.9c0.41,0.24,0.74,0.05,0.74-0.42c0-0.46-0.32-1.03-0.73-1.27l-6.64-3.83
				c-0.41-0.24-0.74-0.04-0.74,0.42c0,0.47,0.32,1.03,0.73,1.27L323.66,217.9"/>
			<path class="st72" d="M314.41,212.56c0.41,0.24,0.74,0.05,0.74-0.42c0-0.46-0.32-1.03-0.73-1.27l-10.83-6.25
				c-0.41-0.24-0.74-0.04-0.74,0.42c0,0.47,0.32,1.03,0.73,1.27L314.41,212.56"/>
			<path class="st72" d="M335.31,220.83c0.41,0.24,0.74,0.05,0.74-0.42c0-0.46-0.32-1.03-0.73-1.27l-22.97-13.26
				c-0.41-0.24-0.74-0.04-0.74,0.42c0,0.47,0.32,1.03,0.73,1.27L335.31,220.83"/>
			<path class="st72" d="M335.33,213.25c0.41,0.24,0.74,0.05,0.74-0.42s-0.32-1.03-0.73-1.27l-3.27-1.89
				c-0.41-0.24-0.74-0.05-0.74,0.42c0,0.47,0.32,1.03,0.73,1.27L335.33,213.25"/>
			<path class="st72" d="M329.59,209.94c0.41,0.24,0.74,0.05,0.74-0.42c0-0.47-0.32-1.03-0.73-1.27l-0.3-0.17
				c-0.41-0.24-0.74-0.05-0.74,0.42c0,0.47,0.32,1.03,0.73,1.27L329.59,209.94"/>
			<path class="st72" d="M335.34,209.46c0.41,0.24,0.74,0.05,0.74-0.42c0-0.47-0.32-1.03-0.73-1.27l-31.72-18.31
				c-0.41-0.24-0.74-0.05-0.74,0.42c0,0.47,0.32,1.03,0.73,1.27L335.34,209.46"/>
			<path class="st72" d="M335.35,205.67c0.41,0.24,0.74,0.05,0.74-0.42c0-0.46-0.32-1.03-0.73-1.27l-10.61-6.13
				c-0.41-0.24-0.74-0.04-0.74,0.42c0,0.47,0.32,1.03,0.73,1.27L335.35,205.67"/>
			<path class="st72" d="M321.83,197.87c0.41,0.24,0.74,0.05,0.74-0.42c0-0.46-0.32-1.03-0.73-1.27l-18.2-10.51
				c-0.41-0.24-0.74-0.04-0.74,0.42c0,0.47,0.32,1.03,0.73,1.27L321.83,197.87"/>
			<path class="st72" d="M335.38,198.1c0.41,0.24,0.74,0.04,0.74-0.42c0-0.47-0.32-1.03-0.73-1.27l-3.27-1.89
				c-0.41-0.24-0.74-0.05-0.74,0.42c0,0.46,0.32,1.03,0.73,1.27L335.38,198.1"/>
			<path class="st72" d="M329.63,194.78c0.41,0.24,0.74,0.04,0.74-0.42c0-0.47-0.32-1.03-0.73-1.27l-0.3-0.17
				c-0.41-0.24-0.74-0.05-0.74,0.42c0,0.46,0.32,1.03,0.73,1.27L329.63,194.78"/>
			<path class="st72" d="M335.39,194.31c0.41,0.24,0.74,0.05,0.74-0.42s-0.32-1.03-0.73-1.27l-18.06-10.43
				c-0.41-0.24-0.74-0.05-0.74,0.42c0,0.47,0.32,1.03,0.73,1.27L335.39,194.31"/>
			<path class="st72" d="M314.62,182.32c0.4,0.23,0.74,0.05,0.74-0.42c0-0.47-0.33-1.04-0.73-1.27l-10.95-6.32
				c-0.41-0.24-0.74-0.05-0.74,0.42c0,0.47,0.32,1.03,0.73,1.27L314.62,182.32"/>
			<path class="st72" d="M335.4,190.52c0.41,0.24,0.74,0.05,0.74-0.42c0-0.47-0.32-1.03-0.73-1.27l-31.72-18.31
				c-0.41-0.24-0.74-0.05-0.74,0.42c0,0.47,0.32,1.03,0.73,1.27L335.4,190.52"/>
		</g>
	</g>
</g>
<g>
	<g>
		<g class="st11">
			<g>
				<polygon class="st73" points="201.95,272.41 242.23,249.01 242.28,233.13 202,256.54 				"/>
			</g>
			<g>
				<path class="st74" d="M182.41,238.56l-0.06,22.53l19.61,11.32l0.04-15.88c-2.25-3.9-3.52-6.09-5.77-10L182.41,238.56z"/>
			</g>
			<g class="st11">
				<defs>
					<path id="SVGID_00000178196138720599351540000012275474248859204261_" class="st11" d="M202,256.54l40.28-23.41
						c-2.25-3.9-3.52-6.09-5.77-10l-40.28,23.41C198.48,250.44,199.75,252.63,202,256.54z"/>
				</defs>
				<clipPath id="SVGID_00000095325092337891944460000013466027419487027641_">
					<use xlink:href="#SVGID_00000178196138720599351540000012275474248859204261_"  style="overflow:visible;"/>
				</clipPath>
				<g style="clip-path:url(#SVGID_00000095325092337891944460000013466027419487027641_);">
					<path class="st76" d="M202,256.54l40.28-23.41c-2.25-3.9-3.52-6.09-5.77-10l-40.28,23.41
						C198.48,250.44,199.75,252.63,202,256.54"/>
				</g>
			</g>
			<g>
				
					<linearGradient id="SVGID_00000035524654071826255770000017509977063194954404_" gradientUnits="userSpaceOnUse" x1="312.1786" y1="221.4247" x2="292.0711" y2="252.4338" gradientTransform="matrix(-1 0 0 1 515.5264 0)">
					<stop  offset="0" style="stop-color:#89DAF4"/>
					<stop  offset="1" style="stop-color:#309FAA"/>
				</linearGradient>
				<polygon style="fill:url(#SVGID_00000035524654071826255770000017509977063194954404_);" points="196.23,246.54 236.51,223.13 
					222.69,215.15 182.41,238.56 				"/>
			</g>
		</g>
	</g>
	<g>
		<g class="st11">
			<g>
				<polyline class="st78" points="220.14,221.22 222.45,219.89 224.75,221.22 222.44,222.55 220.14,221.22 				"/>
				<polyline class="st78" points="216.34,223.42 218.64,222.08 220.93,223.42 218.63,224.75 216.34,223.42 				"/>
				<polyline class="st78" points="212.53,225.62 214.84,224.28 217.13,225.62 214.82,226.95 212.53,225.62 				"/>
				<polyline class="st78" points="208.72,227.81 211.03,226.48 213.32,227.81 211.02,229.15 208.72,227.81 				"/>
				<polyline class="st78" points="204.92,230.01 207.22,228.68 209.51,230.01 207.21,231.34 204.92,230.01 				"/>
				<polyline class="st78" points="201.11,232.21 203.41,230.88 205.71,232.21 203.4,233.54 201.11,232.21 				"/>
				<polyline class="st78" points="212.61,230.07 226.34,222.15 228.52,223.41 214.79,231.34 212.61,230.07 				"/>
				<path class="st78" d="M209.9,231.57c0.64-0.37,1.66-0.37,2.3,0c0.64,0.37,0.63,0.97,0,1.33c-0.64,0.37-1.66,0.37-2.3,0
					C209.26,232.53,209.26,231.94,209.9,231.57"/>
				<path class="st78" d="M206.09,233.76c0.64-0.37,1.66-0.37,2.3,0c0.64,0.37,0.63,0.97,0,1.33c-0.64,0.37-1.67,0.37-2.31,0
					C205.45,234.73,205.45,234.13,206.09,233.76"/>
			</g>
		</g>
	</g>
	<path class="st74" d="M238,244.58c0.75-0.43,1.35-0.08,1.35,0.77l0.03,0.71c0,0.85-0.6,1.9-1.35,2.33l-30.76,17.76
		c-0.75,0.43-1.35,0.08-1.35-0.77l-0.03-0.71c0-0.86,0.6-1.9,1.35-2.33L238,244.58"/>
</g>
<g>
	<g>
		<g class="st11">
			<g>
				<polygon class="st73" points="157.29,298.45 197.57,275.05 197.61,259.17 157.33,282.58 				"/>
			</g>
			<g>
				<path class="st74" d="M137.74,264.6l-0.06,22.53l19.61,11.32l0.04-15.88c-2.25-3.9-3.52-6.09-5.77-10L137.74,264.6z"/>
			</g>
			<g class="st11">
				<defs>
					<path id="SVGID_00000171718743575421192730000013471238157207077788_" class="st11" d="M157.33,282.58l40.28-23.41
						c-2.25-3.9-3.52-6.09-5.77-10l-40.28,23.41C153.81,276.48,155.08,278.67,157.33,282.58z"/>
				</defs>
				<clipPath id="SVGID_00000039855830961574484340000008610832493637022362_">
					<use xlink:href="#SVGID_00000171718743575421192730000013471238157207077788_"  style="overflow:visible;"/>
				</clipPath>
				<g style="clip-path:url(#SVGID_00000039855830961574484340000008610832493637022362_);">
					<path class="st76" d="M157.33,282.58l40.28-23.41c-2.25-3.9-3.52-6.09-5.77-10l-40.28,23.41
						C153.81,276.48,155.08,278.67,157.33,282.58"/>
				</g>
			</g>
			<g>
				
					<linearGradient id="SVGID_00000047765638474031232870000008976134960855111859_" gradientUnits="userSpaceOnUse" x1="355.5106" y1="249.5229" x2="335.4032" y2="280.532" gradientTransform="matrix(-1 0 0 1 515.5264 0)">
					<stop  offset="0" style="stop-color:#89DAF4"/>
					<stop  offset="1" style="stop-color:#309FAA"/>
				</linearGradient>
				<polygon style="fill:url(#SVGID_00000047765638474031232870000008976134960855111859_);" points="151.56,272.58 191.84,249.17 
					178.02,241.19 137.74,264.6 				"/>
			</g>
		</g>
	</g>
	<g>
		<g class="st11">
			<g>
				<polyline class="st78" points="175.48,247.26 177.78,245.92 180.08,247.26 177.77,248.59 175.48,247.26 				"/>
				<polyline class="st78" points="171.67,249.46 173.97,248.12 176.27,249.46 173.96,250.79 171.67,249.46 				"/>
				<polyline class="st78" points="167.86,251.65 170.17,250.32 172.46,251.65 170.15,252.99 167.86,251.65 				"/>
				<polyline class="st78" points="164.05,253.85 166.36,252.52 168.66,253.85 166.35,255.19 164.05,253.85 				"/>
				<polyline class="st78" points="160.25,256.05 162.55,254.72 164.85,256.05 162.54,257.38 160.25,256.05 				"/>
				<polyline class="st78" points="156.44,258.25 158.75,256.92 161.04,258.25 158.73,259.58 156.44,258.25 				"/>
				<polyline class="st78" points="167.94,256.11 181.67,248.19 183.85,249.45 170.12,257.38 167.94,256.11 				"/>
				<path class="st78" d="M165.23,257.61c0.64-0.37,1.66-0.37,2.3,0c0.64,0.37,0.63,0.97,0,1.33c-0.64,0.37-1.66,0.37-2.3,0
					C164.59,258.57,164.59,257.97,165.23,257.61"/>
				<path class="st78" d="M161.42,259.8c0.64-0.37,1.66-0.37,2.3,0c0.64,0.37,0.63,0.97,0,1.33c-0.64,0.37-1.67,0.37-2.31,0
					C160.78,260.77,160.79,260.17,161.42,259.8"/>
			</g>
		</g>
	</g>
	<path class="st74" d="M193.34,270.62c0.75-0.43,1.35-0.08,1.35,0.77l0.03,0.71c0,0.85-0.6,1.9-1.35,2.33l-30.76,17.76
		c-0.75,0.43-1.35,0.08-1.35-0.77l-0.03-0.71c0-0.86,0.6-1.9,1.35-2.33L193.34,270.62"/>
</g>
<g>
	<g>
		<g class="st81">
			<path class="st82" d="M236.42,266.68c5.28,3.05,5.31,7.98,0.06,11.03c-5.27,3.06-13.78,3.06-19.06,0.01
				c-5.28-3.05-5.33-7.99-0.06-11.05C222.6,263.62,231.14,263.64,236.42,266.68z"/>
		</g>
		<g>
			<g>
				<path class="st83" d="M222.04,275.76c0,0-4.78-3.1-4.9-3.86c-0.13-0.75,1.03-1.57,1.83-1.54c0.8,0.03,4.18,0.31,4.18,0.31
					l1.08,1.23C224.23,271.9,226.17,276.52,222.04,275.76z"/>
				<path class="st83" d="M232.49,271.85c0,0-4.78-3.1-4.9-3.86c-0.13-0.75,1.03-1.57,1.83-1.54c0.8,0.03,4.18,0.31,4.18,0.31
					l1.08,1.23C234.68,268,236.61,272.62,232.49,271.85z"/>
				<path class="st0" d="M220.47,232.36l-0.14,39.28c0,0,2.18,1.32,4.69-0.1c0,0,3.57-33.93,3.64-34.74
					c0.07-0.74,1.51,30.98,1.51,30.98s2.76,1.58,4.85-0.57l1.6-37.58L220.47,232.36z"/>
				<path class="st0" d="M236.7,219.26c-0.25-0.12-0.31-0.15-0.56-0.27c-0.22-3.57-1.02-17.25-1.02-17.25
					c1.33,0.48,2.29,1.01,3.1,4.58c0.38,1.69,0.76,4.44,1.04,7.19c0.23,2.21-0.71,4.42-2.51,5.72
					C236.73,219.24,236.72,219.25,236.7,219.26z"/>
				<polygon class="st17" points="222.09,208.35 212.91,211.48 217.5,223.29 226.52,220.1 				"/>
				<path class="st3" d="M224.38,203.01c0,0-2.01,0.44-4.61,2.57l0.7,26.78c0,0,3.38,2.47,10.29,0.67c5.63-1.47,7.11-3.84,7.11-3.84
					s0.51-12.85-0.01-18.28c-0.53-5.43-2.74-9.16-2.74-9.16c-1.23-0.37-3.94-0.22-3.94-0.22L224.38,203.01z"/>
				<path class="st84" d="M230.62,201.37l0.16-5.23c0,0,1.32-0.1,1.09-1.54c-0.23-1.44-1.58-0.49-1.81-0.07c0,0-0.3-4.97-2.93-5.44
					c-2.63-0.48-3.72-0.1-3.79,1.18c-0.07,1.28-0.15,5.76,0,7.42c0.15,1.66,0,2.53,2.4,2.46l0.21,1.74c0,0,1.09,1.02,4.46,0.19
					L230.62,201.37z"/>
			</g>
		</g>
	</g>
	<path class="st85" d="M224.38,203.01c0.02-1.02,0.18-1.58,2.56-1.85c2.38-0.27,4.31-0.91,4.55,0c0.24,0.91-0.24,1.47-2.62,1.67
		C226.5,203.03,224.38,203.01,224.38,203.01z"/>
	<path class="st0" d="M219.77,205.58c-1.03,0.41-1.58,13.28-1.58,13.28l-3.1-2.83l-2.4,1.52c0,0,3.4,10.98,7.06,8.41
		C223.4,223.4,224.89,203.54,219.77,205.58z"/>
	<path class="st84" d="M214.82,214.36c-0.26-1,0.35-2.2-0.24-2.37c-0.59-0.18-1.11,0.72-1.11,0.72s-0.26-2.49-0.75-2.51
		c-0.48-0.02-0.89,1.05-0.89,1.05s-0.71,0.27-0.93,0.76c-0.23,0.48-0.48,1.7-0.14,3.09c0.34,1.39,1.93,2.47,1.93,2.47l2.4-1.52
		C215.09,216.03,215.08,215.37,214.82,214.36z"/>
	<path class="st83" d="M226.15,194.07c0.25-0.28,0.55-0.45,0.89-0.38c0.47,0.11,0.58,0.65,0.46,1.05c-0.05,0.17-1.01,1.23-1.07,1.1
		c0.63,1.24,1.49,2.36,2.52,3.3c0.22,0.2,0.45,0.39,0.73,0.48c0.28,0.09,0.62,0.05,0.82-0.18c2-2.29,3.04-5.28,2.38-8.25
		c-0.12-0.53-0.29-1.06-0.65-1.46c-0.36-0.4-0.96-0.62-1.46-0.42c-0.87-2.43-6.3-1.65-7.32,0.28c-1.23,2.3,1.23,2.92,1.71,4.69
		c0.12,0.46,0.15,0.93,0.17,1.4C225.43,195.3,225.73,194.54,226.15,194.07z"/>
</g>
<g>
	<path class="st83" d="M82.05,295.08c2.24-0.49,4.69,0.11,6.45,1.58c1.76,1.46,2.8,3.76,2.73,6.05c-0.03,0.98-0.24,2.02,0.21,2.89
		c0.68,1.33,2.61,1.71,3.11,3.11c0.52,1.46-0.83,2.87-1.16,4.38c-0.35,1.57,0.42,3.13,0.96,4.65c0.54,1.51,0.77,3.41-0.37,4.54
		c-1.13,1.12-3.11,0.94-4.29,2.01c-0.54,0.49-0.85,1.19-1.39,1.66c-1.16,1.01-3.06,0.64-4.19-0.4c-1.13-1.04-1.67-2.56-2.12-4.03
		c-0.45-1.47-0.88-3-1.86-4.18c-0.83-1-2.06-1.74-2.48-2.97c-0.61-1.77,0.69-3.57,1.07-5.4c0.4-1.95-0.27-3.93-0.68-5.87
		c-0.38-1.79-0.39-3.82,0.29-5.56C78.85,296.12,80.65,295.39,82.05,295.08z"/>
	<g class="st81">
		<path class="st82" d="M76.85,370.71c-4.78,2.76-4.81,7.23-0.06,9.99c4.77,2.77,12.49,2.77,17.27,0.01
			c4.78-2.76,4.83-7.24,0.06-10.02C89.37,367.94,81.63,367.95,76.85,370.71z"/>
	</g>
	<g>
		<path class="st84" d="M74.44,333.79c0,0-0.9,2.18-0.99,3.04c-0.09,0.86,0.6,0.66,0.6,0.66s0.59,0.41,1.03,1
			c0.44,0.58,1.87-0.3,1.87-0.3l-0.11-3.87L74.44,333.79z"/>
		<path class="st84" d="M80.14,309.44c-2.14,0.52-2.38,1.56-3,3.61c-0.62,2.05-1.47,11.68-1.47,11.68l-1.23,9.06l2.4,0.53l2.7-8.62
			L80.14,309.44z"/>
		<g>
			<path class="st83" d="M91.04,372.08c0.69,1.01,1.36,2.05,0.29,3.68c-1.07,1.63-2.57,3.26-4.57,2.83
				c-1.01-0.22,0.63-3.84,2.13-5.91C90.39,370.62,91.04,372.08,91.04,372.08z"/>
			<path class="st84" d="M91.98,351.32c0,0-0.49,19.08-0.6,21.37c-0.08,1.69-2.37,3.71-3.35,3.51c-1.32-0.27,0.86-3.51,0.86-3.51
				s-1.55-14.86-1.88-17.5c-0.33-2.64-0.49-4.53-0.49-4.53L91.98,351.32z"/>
			<path class="st83" d="M83.24,369.53c0.69,1.01,1.36,2.05,0.29,3.68c-1.07,1.63-2.57,3.26-4.57,2.83
				c-1.01-0.22,0.63-3.84,2.13-5.91C82.6,368.06,83.24,369.53,83.24,369.53z"/>
			<path class="st84" d="M83.7,348.76c0,0,0,19.08-0.11,21.37c-0.08,1.69-2.37,3.71-3.35,3.51c-1.31-0.27,0.86-3.51,0.86-3.51
				s-2.6-17.61-2.93-20.25c-0.33-2.64,0.07-1.77,0.07-1.77L83.7,348.76z"/>
			<g>
				<path class="st0" d="M89.99,327.06c3.26,5.01,3.91,10.05,3.17,15.45c-0.73,5.4-1.18,8.81-1.18,8.81s-7.04,2.9-13.81-1.43
					c0,0-1.57-8.43-1.7-14.14c-0.13-5.71,2.21-8.72,2.21-8.72L89.99,327.06z"/>
			</g>
			<path class="st3" d="M88.51,309.51c0,0,3.03,0.73,3.48,1.24c0,0,0.28,6.52-0.93,10.25c-1.21,3.74-1.08,6.05-1.08,6.05
				s-2.59,4.19-11.31-0.03c0,0-0.8-4.89-1.32-7.25c-0.52-2.35-1.38-2.47-0.16-5.23c1.22-2.75,2.95-5.11,2.95-5.11
				c0.78-0.33,2.53-0.33,2.53-0.33L88.51,309.51z"/>
			<path class="st84" d="M87.47,308.37l0.11-5.05c0,0,1.19-0.1,0.98-1.4c-0.21-1.3-1.43-0.44-1.64-0.05c0,0-0.31-4.5-2.7-4.91
				c-2.39-0.41-4.69,0.11-4.75,1.28c-0.05,1.16-0.01,4.72,0.67,6.79c0.49,1.49,0.71,2.05,2.89,1.97l-0.13,2.75
				c0,0,1.1,0.79,4.14,0.03L87.47,308.37z"/>
			<path class="st85" d="M83.01,307.8c0,0-0.42,0-0.58,0.09c-0.16,0.09-1.03,0.97-1.04,1.93c-0.01,0.96,0.38,2.06,0.38,2.06
				l1.96-1.8l1.26,2.39c0,0,0.77-0.16,1.83-0.97c1.06-0.81,1.69-2,1.69-2c-0.35-0.86-0.58-1.38-0.58-1.38
				c-0.08-0.2-0.46-0.29-0.46-0.29s-2.09,1.92-3.74,2.03C83.73,309.87,83.14,309.6,83.01,307.8z"/>
		</g>
		<path class="st84" d="M91.99,310.75c1.43,1.04,4.15,14.35,4.15,16.26c0,1.9-3.74,10.49-3.74,10.49l-2.48-1.32l2.06-9.85
			c0,0-1.83-7.74-2.37-10.33C89.08,313.42,91.99,310.75,91.99,310.75z"/>
		<path class="st84" d="M89.92,336.17c0,0-1.46,1.97-1.64,2.36c-0.18,0.39,0.87,0,0.87,0s-0.94,2.61-0.64,2.89
			c0.3,0.28,1.57-0.28,1.57-0.28s0.84-0.25,1.15-0.69c0.31-0.44,1.17-2.96,1.17-2.96L89.92,336.17z"/>
	</g>
	<path class="st83" d="M87.76,307.17c-0.79-0.27-1.42-0.98-1.58-1.8c-0.13-0.67,0.01-1.43-0.41-1.96c-0.6-0.75-1.91-0.49-2.58-1.18
		c-0.7-0.72-0.33-2.06-1.04-2.77c-0.43-0.43-1.11-0.46-1.73-0.47c0.13,1.23,0.01,2.49-0.36,3.67c-0.11,0.35-0.33,0.77-0.7,0.74
		c-0.41-0.03-0.55-0.55-0.58-0.95c-0.07-0.78-0.13-1.56-0.2-2.34c-0.09-1.04-0.14-2.2,0.56-2.98c0.53-0.59,1.37-0.79,2.16-0.89
		c2.11-0.25,4.35,0.06,6.09,1.27c1.74,1.22,2.83,3.46,2.33,5.52c-0.16,0.66-0.47,1.28-0.51,1.96c-0.02,0.33,0.05,0.68,0.22,0.97
		c0.14,0.24,0.57,0.47,0.5,0.77C89.78,307.41,88.21,307.32,87.76,307.17z"/>
</g>
<g>
	<g class="st81">
		<path class="st82" d="M53.68,381.33c-4.78,2.76-4.81,7.23-0.06,9.99c4.77,2.77,12.49,2.77,17.27,0.01
			c4.78-2.76,4.83-7.24,0.06-10.02C66.2,378.56,58.46,378.57,53.68,381.33z"/>
	</g>
	<g>
		<g>
			<g>
				<path class="st83" d="M66.12,389.87c0,0,4.43-2.87,4.54-3.57c0.12-0.7-0.95-1.45-1.7-1.43c-0.74,0.03-3.87,0.29-3.87,0.29
					l-1,1.14C64.09,386.3,62.3,390.58,66.12,389.87z"/>
				<path class="st83" d="M56.45,386.25c0,0,4.43-2.87,4.54-3.57c0.12-0.7-0.95-1.45-1.7-1.43c-0.74,0.03-3.87,0.29-3.87,0.29
					l-1,1.14C54.42,382.68,52.62,386.96,56.45,386.25z"/>
				<path class="st0" d="M67.58,349.66l0.13,36.4c0,0-2.02,1.23-4.35-0.09c0,0-4.12-31.44-4.19-32.19
					c-0.06-0.69-0.58,28.7-0.58,28.7s-2.55,1.46-4.5-0.52l-2.29-34.82L67.58,349.66z"/>
				<path class="st3" d="M63.95,322.46c0,0,1.86,0.41,4.27,2.38l-0.65,24.81c0,0-3.13,2.29-9.54,0.62
					c-5.22-1.37-6.59-3.56-6.59-3.56s-0.48-11.9,0.01-16.94c0.2-2.08,0.67-3.89,1.15-5.3c0.72-2.12,2.77-3.51,5-3.39l0.03,0
					L63.95,322.46z"/>
				<path class="st84" d="M58.18,320.95l-0.14-4.85c0,0-1.22-0.09-1.01-1.43c0.21-1.34,1.46-0.46,1.68-0.06c0,0,0.28-4.6,2.72-5.04
					c2.44-0.44,3.45-0.09,3.51,1.1c0.06,1.19,0.14,5.34,0,6.88c-0.14,1.54,0,2.34-2.22,2.28l-0.19,1.61c0,0-1.01,0.94-4.13,0.18
					L58.18,320.95z"/>
			</g>
		</g>
	</g>
	<path class="st86" d="M63.95,322.46c-0.02-0.95-0.17-1.46-2.37-1.71c-2.2-0.25-3.99-0.84-4.22,0c-0.22,0.84,0.22,1.36,2.42,1.55
		C61.99,322.49,63.95,322.46,63.95,322.46z"/>
	<path class="st84" d="M68.23,324.84C69.18,325.22,71,339.2,71,339.2l5.62-3.65l1.3,2.29c0,0-6.29,8.27-9.67,5.89
		C64.87,341.35,63.48,322.96,68.23,324.84z"/>
	<path class="st0" d="M65.32,334.66c-0.51-5.38,0.2-10.88,2.9-9.81c0.49,0.19,1.98,4.24,2.57,7.89
		C69.26,333.54,66.93,334.02,65.32,334.66z"/>
	<path class="st84" d="M77.57,334.3c0.65-0.71,0.67-1.95,1.23-1.84c0.56,0.11,0.6,1.07,0.6,1.07s1.3-1.92,1.7-1.73
		c0.41,0.19,0.27,1.25,0.27,1.25s0.46,0.53,0.43,1.03c-0.02,0.49-0.35,1.6-1.23,2.59c-0.88,0.99-2.65,1.18-2.65,1.18l-1.3-2.29
		C76.62,335.55,76.92,335,77.57,334.3z"/>
	<path class="st83" d="M62.32,314.18c-0.23-0.26-0.51-0.42-0.82-0.35c-0.44,0.1-0.53,0.6-0.42,0.98c0.05,0.15,0.93,1.14,0.99,1.02
		c-0.59,1.15-1.38,2.19-2.33,3.05c-0.2,0.18-0.42,0.37-0.68,0.45c-0.26,0.08-0.58,0.04-0.76-0.16c-1.9-2.17-3.22-5.74-1.59-8.45
		c0.58-0.95,1.54-1.67,2.62-1.93c0.97-0.24,2.01-0.14,2.95-0.47c0.61-0.21,1.18-0.61,1.83-0.64c0.65-0.03,1.39,0.57,1.15,1.17
		c0.55-0.47,1.5-0.15,1.81,0.51c0.31,0.66,0.07,1.47-0.4,2.01c-1.04,1.19-2.94,1.28-3.41,3.02c-0.11,0.42-0.14,0.86-0.16,1.3
		C62.98,315.33,62.71,314.62,62.32,314.18z"/>
</g>
<g>
	<path class="st3" d="M175.79,162.12l40.36-23.3c1.06-0.61,1.93-0.13,1.93,1.1l0.18,61.86c0,1.22-0.86,2.71-1.92,3.32l-40.36,23.3
		c-1.06,0.61-1.93,0.12-1.93-1.1l-0.18-61.86C173.86,164.21,174.73,162.73,175.79,162.12"/>
	<path class="st2" d="M208.98,153.24l0.01,5.2l4.79-2.77l-0.01-5.2L208.98,153.24 M202.82,156.8l4.8-2.77l0.01,5.2l-4.8,2.77
		L202.82,156.8 M190.63,204.44l4.8-2.77l0.01,5.2l-4.8,2.77L190.63,204.44 M184.48,207.99l4.79-2.77l0.01,5.2l-4.79,2.77
		L184.48,207.99 M178.33,211.54l4.79-2.77l0.01,5.2l-4.79,2.77L178.33,211.54 M196.65,155.27l17.11-9.88l0,1.66l-17.11,9.88
		L196.65,155.27 M178.2,165.93l7.77-4.49l0,1.66l-7.77,4.49L178.2,165.93"/>
	<path class="st0" d="M190.52,163.9l0.01,5.2l4.8-2.77l-0.01-5.2L190.52,163.9 M209,160l4.79-2.77l0.01,5.2l-4.79,2.77L209,160
		 M196.7,173.87l4.8-2.77l0.01,5.2l-4.8,2.77L196.7,173.87 M196.72,180.62l4.8-2.77l0.01,5.2l-4.8,2.77L196.72,180.62
		 M202.86,170.31l4.8-2.77l0.01,5.2l-4.8,2.77L202.86,170.31 M202.88,177.07l4.8-2.77l0.01,5.2l-4.8,2.77L202.88,177.07
		 M202.9,183.83l4.8-2.77l0.01,5.2l-4.8,2.77L202.9,183.83 M196.74,187.38l4.8-2.77l0.01,5.2l-4.8,2.77L196.74,187.38
		 M190.59,190.93l4.8-2.77l0.01,5.2l-4.8,2.77L190.59,190.93 M190.57,184.17l4.8-2.77l0.01,5.2l-4.8,2.77L190.57,184.17
		 M190.56,177.41l4.8-2.77l0.01,5.2l-4.8,2.77L190.56,177.41 M190.54,170.66l4.8-2.77l0.01,5.2l-4.8,2.77L190.54,170.66
		 M196.68,167.11l4.8-2.77l0.01,5.2l-4.8,2.77L196.68,167.11 M202.84,163.55l4.8-2.77l0.01,5.2l-4.8,2.77L202.84,163.55
		 M209.02,166.76l4.79-2.77l0.01,5.2l-4.79,2.77L209.02,166.76 M209.04,173.51l4.79-2.77l0.01,5.2l-4.79,2.77L209.04,173.51
		 M209.06,180.27l4.79-2.77l0.01,5.2l-4.79,2.77L209.06,180.27 M209.08,187.03l4.79-2.77l0.01,5.2l-4.79,2.77L209.08,187.03
		 M202.92,190.58l4.8-2.77l0.01,5.2l-4.8,2.77L202.92,190.58 M196.76,194.14l4.8-2.77l0.01,5.2l-4.8,2.77L196.76,194.14
		 M190.61,197.69l4.8-2.77l0.01,5.2l-4.8,2.77L190.61,197.69 M196.67,160.35l4.8-2.77l0.01,5.2l-4.8,2.77L196.67,160.35
		 M209.09,193.78l4.79-2.77l0.01,5.2l-4.79,2.77L209.09,193.78 M202.94,197.33l4.8-2.77l0.01,5.2l-4.8,2.77L202.94,197.33
		 M196.78,200.89l4.8-2.77l0.01,5.2l-4.8,2.77L196.78,200.89 M184.37,167.45l4.79-2.77l0.01,5.2l-4.79,2.77L184.37,167.45
		 M184.45,194.48l4.79-2.77l0.01,5.2l-4.79,2.77L184.45,194.48 M184.43,187.72l4.79-2.77l0.01,5.2l-4.79,2.77L184.43,187.72
		 M184.41,180.96l4.79-2.77l0.01,5.2l-4.79,2.77L184.41,180.96 M184.39,174.21l4.79-2.77l0.01,5.2l-4.79,2.77L184.39,174.21
		 M184.46,201.24l4.79-2.77l0.01,5.2l-4.79,2.77L184.46,201.24 M178.21,171l4.79-2.77l0.01,5.2l-4.79,2.77L178.21,171
		 M178.29,198.03l4.79-2.77l0.01,5.2l-4.79,2.77L178.29,198.03 M178.27,191.28l4.79-2.77l0.01,5.2l-4.79,2.77L178.27,191.28
		 M178.25,184.52l4.79-2.77l0.01,5.2l-4.79,2.77L178.25,184.52 M178.23,177.76l4.79-2.77l0.01,5.2l-4.79,2.77L178.23,177.76
		 M178.31,204.79l4.79-2.77l0.01,5.2l-4.79,2.77L178.31,204.79 M186.91,215.47l18.45-10.65l0,1.41l-18.45,10.65L186.91,215.47"/>
</g>
<g>
	<g>
		<g>
			<path class="st54" d="M130.09,195.34l35.48-20.48c0.59-0.34,1.07-0.07,1.07,0.62l0.06,22.86c0,0.68-0.48,1.51-1.07,1.85
				l-35.48,20.48c-0.59,0.34-1.08,0.07-1.08-0.61l-0.06-22.86C129.02,196.51,129.49,195.68,130.09,195.34"/>
		</g>
		<polygon class="st3" points="166.71,199.57 166.63,174.24 129.01,195.96 129.09,221.29 		"/>
	</g>
	<path class="st87" d="M131.4,196.68c0.11-0.06,0.22-0.09,0.31-0.08l15.27,2.34c0.27,0.04,0.58-0.04,0.89-0.22
		c0.31-0.18,0.61-0.45,0.88-0.8l15.21-19.93c0.1-0.13,0.2-0.22,0.31-0.28c0.19-0.11,0.38-0.11,0.49,0.03
		c0.17,0.21,0.1,0.67-0.17,1.02l-15.83,20.74c-0.27,0.35-0.57,0.63-0.88,0.81s-0.61,0.26-0.89,0.21l-15.89-2.43
		c-0.27-0.04-0.35-0.41-0.18-0.82C131.02,197.01,131.21,196.79,131.4,196.68"/>
</g>
<g>
	<g>
		<g class="st11">
			
				<linearGradient id="SVGID_00000067939056431510276550000000867190425484182664_" gradientUnits="userSpaceOnUse" x1="133.419" y1="297.6866" x2="106.8775" y2="362.3392" gradientTransform="matrix(-1 0 0 1 515.5264 0)">
				<stop  offset="0" style="stop-color:#309FAA"/>
				<stop  offset="1" style="stop-color:#0C1F8E"/>
			</linearGradient>
			<polygon style="fill:url(#SVGID_00000067939056431510276550000000867190425484182664_);" points="318.19,357.34 406.4,408.55 
				495,357.34 406.4,306.13 			"/>
			
				<linearGradient id="SVGID_00000008839157650076456120000002847485050885483448_" gradientUnits="userSpaceOnUse" x1="109.1231" y1="405.4401" x2="197.337" y2="405.4401" gradientTransform="matrix(-1 0 0 1 515.5264 0)">
				<stop  offset="0" style="stop-color:#080420"/>
				<stop  offset="0.9975" style="stop-color:#0C1F8E"/>
			</linearGradient>
			<polygon style="fill:url(#SVGID_00000008839157650076456120000002847485050885483448_);" points="318.19,453.54 318.19,357.34 
				406.4,408.55 406.4,453.54 			"/>
			
				<linearGradient id="SVGID_00000044889872979154910300000013157095219555394979_" gradientUnits="userSpaceOnUse" x1="20.5249" y1="405.4405" x2="109.1231" y2="405.4405" gradientTransform="matrix(-1 0 0 1 515.5264 0)">
				<stop  offset="0" style="stop-color:#0C1F8E"/>
				<stop  offset="0.998" style="stop-color:#080420"/>
			</linearGradient>
			<polygon style="fill:url(#SVGID_00000044889872979154910300000013157095219555394979_);" points="406.4,453.54 406.4,408.55 
				495,357.34 495,453.54 			"/>
		</g>
	</g>
	<g class="st11">
		<path class="st91" d="M363.61,348.97l56.89,33.06c1.75,1.02,4.61,1.02,6.37,0l42.15-24.33c0.89-0.51,1.33-1.19,1.33-1.86l0,1.67
			c0,0.67-0.44,1.35-1.33,1.86l-42.15,24.33c-1.77,1.02-4.62,1.02-6.37,0l-56.89-33.06c-0.87-0.51-1.31-1.17-1.31-1.83l0-1.67
			C362.3,347.8,362.73,348.47,363.61,348.97z"/>
		<g>
			<path class="st17" d="M363.63,345.28c-1.77,1.02-1.78,2.67-0.02,3.69l56.89,33.06c1.75,1.02,4.61,1.02,6.37,0l42.15-24.33
				c1.77-1.02,1.78-2.67,0.02-3.69l-56.89-33.06c-1.75-1.02-4.61-1.02-6.37,0L363.63,345.28z"/>
		</g>
		<g>
			<path class="st91" d="M442,369.28c-0.48,0.28-0.48,0.73-0.01,1.01c0.48,0.28,1.26,0.28,1.74,0l5.23-3.02
				c0.48-0.28,0.48-0.73,0.01-1.01s-1.26-0.28-1.74,0L442,369.28z"/>
		</g>
		<g>
			<polygon class="st2" points="367.96,347.13 422.54,378.84 463.52,355.18 408.94,323.46 			"/>
		</g>
	</g>
	<g>
		<g class="st11">
			<g>
				<path class="st17" d="M466.37,337.48c0.33-0.19,0.33-0.5,0-0.69c-0.33-0.19-0.86-0.19-1.19,0l-2.66,1.53
					c-0.33,0.19-0.33,0.5-0.01,0.69c0.33,0.19,0.86,0.19,1.19,0L466.37,337.48 M461.7,340.18c0.33-0.19,0.33-0.5,0-0.69
					c-0.33-0.19-0.86-0.19-1.19,0l-0.24,0.14c-0.33,0.19-0.33,0.5-0.01,0.69c0.33,0.19,0.86,0.19,1.19,0L461.7,340.18
					 M463.71,335.94c0.33-0.19,0.33-0.5,0-0.69c-0.33-0.19-0.86-0.19-1.19,0l-14.69,8.48c-0.33,0.19-0.33,0.5,0,0.69
					c0.33,0.19,0.86,0.19,1.19,0L463.71,335.94 M446.82,345.69c0.33-0.19,0.33-0.5,0-0.69c-0.33-0.19-0.86-0.19-1.19,0l-8.9,5.14
					c-0.33,0.19-0.33,0.5-0.01,0.69c0.33,0.19,0.86,0.19,1.19,0L446.82,345.69 M437.56,354.12l-4.1-2.38l-7.06,4.08l4.1,2.38
					L437.56,354.12 M461.04,334.39c0.33-0.19,0.33-0.5,0.01-0.69c-0.33-0.19-0.86-0.19-1.19,0l-25.79,14.89
					c-0.33,0.19-0.33,0.5,0,0.69c0.33,0.19,0.86,0.19,1.19,0L461.04,334.39 M432.53,351.2l-4.1-2.38l-7.06,4.08l4.1,2.38
					L432.53,351.2 M458.38,332.84c0.33-0.19,0.33-0.5,0.01-0.69c-0.33-0.19-0.86-0.19-1.19,0l-6.88,3.97c-0.33,0.19-0.33,0.5,0,0.69
					c0.33,0.19,0.86,0.19,1.19,0L458.38,332.84 M454.98,330.17l-21-12.2l-36.47,21.06l21,12.2L454.98,330.17 M391.02,338.36
					l41.84-24.15c0.64-0.37,1.66-0.37,2.29,0l37.98,22.07c0.63,0.37,0.63,0.96-0.01,1.33l-41.84,24.15c-0.64,0.37-1.66,0.37-2.29,0
					l-37.98-22.07C390.39,339.33,390.39,338.73,391.02,338.36"/>
				<path class="st0" d="M433.03,334.99l-7.42-4.31l-2.42,5.7L433.03,334.99 M397.51,339.03l36.47-21.06l21,12.2l-36.47,21.06
					L397.51,339.03"/>
				<polyline class="st2" points="421.37,352.89 428.43,348.82 432.53,351.2 425.47,355.27 421.37,352.89 				"/>
				<polyline class="st2" points="426.4,355.82 433.46,351.74 437.56,354.12 430.5,358.2 426.4,355.82 				"/>
				<polyline class="st17" points="425.6,330.67 433.03,334.99 423.18,336.37 425.6,330.67 				"/>
				<path class="st72" d="M434.07,348.59l25.79-14.89c0.33-0.19,0.87-0.19,1.19,0c0.33,0.19,0.32,0.5-0.01,0.69l-25.79,14.89
					c-0.33,0.19-0.86,0.19-1.19,0C433.74,349.09,433.74,348.78,434.07,348.59"/>
				<path class="st72" d="M447.84,343.73l14.69-8.48c0.33-0.19,0.86-0.19,1.19,0c0.33,0.19,0.33,0.5,0,0.69l-14.69,8.48
					c-0.33,0.19-0.86,0.19-1.19,0C447.51,344.22,447.51,343.92,447.84,343.73"/>
				<path class="st71" d="M450.31,336.12l6.88-3.97c0.33-0.19,0.86-0.19,1.19,0c0.33,0.19,0.32,0.5-0.01,0.69l-6.88,3.97
					c-0.33,0.19-0.86,0.19-1.19,0C449.98,336.62,449.98,336.31,450.31,336.12"/>
				<path class="st72" d="M436.73,350.14l8.9-5.14c0.33-0.19,0.86-0.19,1.19,0c0.33,0.19,0.33,0.5,0,0.69l-8.9,5.14
					c-0.33,0.19-0.87,0.19-1.19,0C436.4,350.64,436.4,350.33,436.73,350.14"/>
				<path class="st71" d="M462.53,338.33l2.66-1.53c0.33-0.19,0.86-0.19,1.19,0c0.33,0.19,0.33,0.5,0,0.69l-2.66,1.53
					c-0.33,0.19-0.86,0.19-1.19,0C462.19,338.83,462.2,338.52,462.53,338.33"/>
				<path class="st71" d="M460.27,339.63l0.24-0.14c0.33-0.19,0.86-0.19,1.19,0c0.33,0.19,0.33,0.5,0,0.69l-0.24,0.14
					c-0.33,0.19-0.86,0.19-1.19,0C459.94,340.13,459.94,339.82,460.27,339.63"/>
			</g>
		</g>
	</g>
	<g>
		<g class="st11">
			<g>
				<path class="st17" d="M451.88,294.21c3.18-1.84,3.2-4.82,0.04-6.66c-3.16-1.84-8.31-1.84-11.5,0c-3.18,1.84-3.2,4.82-0.04,6.66
					C443.55,296.05,448.7,296.05,451.88,294.21 M436.91,302.85c3.18-1.84,3.21-4.82,0.04-6.66c-3.16-1.84-8.32-1.84-11.5,0
					c-3.18,1.84-3.2,4.82-0.03,6.66C428.58,304.69,433.72,304.69,436.91,302.85 M421.94,311.5c3.18-1.84,3.21-4.82,0.04-6.66
					c-3.16-1.84-8.32-1.84-11.5,0c-3.18,1.84-3.2,4.82-0.04,6.66C413.6,313.34,418.75,313.33,421.94,311.5 M399.31,307.03
					l44.92-25.94c1.13-0.65,2.96-0.65,4.08,0l14.74,8.57c1.12,0.65,1.11,1.71-0.02,2.36l-44.92,25.94c-1.13,0.65-2.95,0.65-4.07,0
					l-14.74-8.57C398.18,308.74,398.18,307.68,399.31,307.03"/>
				<path class="st2" d="M433.86,299.95l-3.43-1.99l-1.12,2.63L433.86,299.95 M425.45,296.19c3.18-1.84,8.34-1.84,11.5,0
					c3.16,1.84,3.14,4.82-0.04,6.66c-3.18,1.84-8.33,1.84-11.49,0C422.25,301.01,422.26,298.03,425.45,296.19"/>
				<path class="st0" d="M446.62,290.34l-3.94,0.55l3.43,1.99l0.97-2.28l1.49,0.86l1.05-0.61l-3.43-1.99l-1.05,0.61L446.62,290.34
					 M440.42,287.55c3.18-1.84,8.33-1.84,11.5,0c3.16,1.84,3.15,4.82-0.04,6.66c-3.18,1.84-8.33,1.84-11.5,0
					C437.22,292.37,437.24,289.38,440.42,287.55"/>
				<path class="st0" d="M415.27,308.43l-1.49-0.86l-1.06,0.61l3.43,1.99l1.06-0.61l-1.49-0.86l3.94-0.55l-3.43-1.99L415.27,308.43
					 M410.48,304.84c3.18-1.84,8.34-1.84,11.5,0c3.16,1.84,3.14,4.82-0.04,6.66c-3.18,1.84-8.33,1.84-11.5,0
					C407.28,309.66,407.29,306.67,410.48,304.84"/>
				<polyline class="st17" points="430.43,297.96 433.86,299.95 429.31,300.59 430.43,297.96 				"/>
				<polyline class="st17" points="412.73,308.18 413.79,307.57 415.27,308.43 416.24,306.15 419.67,308.14 415.73,308.7 
					417.22,309.56 416.16,310.17 412.73,308.18 				"/>
				<polyline class="st17" points="442.68,290.89 446.62,290.34 445.13,289.47 446.18,288.86 449.61,290.86 448.56,291.46 
					447.07,290.6 446.1,292.88 442.68,290.89 				"/>
			</g>
		</g>
	</g>
</g>
<g>
	<path class="st2" d="M414.73,256.59c1.19,0.63,1.19,1.65,0.01,2.27c-1.17,0.63-3.08,0.63-4.27,0c-1.18-0.63-1.19-1.65-0.01-2.27
		C411.64,255.96,413.55,255.96,414.73,256.59z"/>
	<g class="st92">
		<path class="st93" d="M414.46,261.16c1.04,0.55,1.04,1.44,0.01,1.99c-1.03,0.55-2.7,0.55-3.74,0c-1.03-0.55-1.04-1.44-0.01-1.99
			C411.76,260.61,413.43,260.61,414.46,261.16z"/>
	</g>
	<g class="st94">
		<path class="st95" d="M414.2,265.73c0.89,0.47,0.89,1.24,0.01,1.71c-0.88,0.47-2.31,0.47-3.21,0c-0.89-0.47-0.89-1.24-0.01-1.71
			C411.88,265.25,413.31,265.25,414.2,265.73z"/>
	</g>
	<g class="st96">
		<path class="st97" d="M413.94,270.29c0.74,0.39,0.74,1.03,0.01,1.42c-0.74,0.39-1.93,0.39-2.67,0c-0.74-0.39-0.74-1.03-0.01-1.42
			C412,269.9,413.2,269.9,413.94,270.29z"/>
	</g>
	<g class="st98">
		<path class="st99" d="M413.67,274.86c0.6,0.32,0.6,0.83,0.01,1.14c-0.59,0.32-1.55,0.32-2.14,0c-0.59-0.32-0.6-0.83-0.01-1.14
			C412.12,274.55,413.08,274.55,413.67,274.86z"/>
	</g>
	<g class="st100">
		<path class="st101" d="M413.41,279.43c0.45,0.24,0.45,0.62,0.01,0.86c-0.44,0.24-1.16,0.24-1.61,0c-0.45-0.24-0.45-0.62-0.01-0.86
			C412.24,279.19,412.96,279.19,413.41,279.43z"/>
	</g>
	<g class="st102">
		<path class="st85" d="M413.14,284c0.3,0.16,0.3,0.42,0,0.58c-0.3,0.16-0.78,0.16-1.08,0c-0.3-0.16-0.3-0.42,0-0.58
			S412.84,283.84,413.14,284z"/>
	</g>
</g>
<g>
	<path class="st1" d="M116.18,214.84c1.84,1.06,1.84,2.78,0.02,3.83c-1.82,1.06-4.78,1.06-6.62,0c-1.83-1.06-1.84-2.78-0.02-3.83
		C111.38,213.78,114.35,213.78,116.18,214.84z"/>
	<g class="st92">
		<path class="st103" d="M115.79,220.67c1.62,0.94,1.62,2.45,0.02,3.38c-1.61,0.93-4.21,0.94-5.84,0c-1.62-0.93-1.62-2.45-0.02-3.38
			C111.56,219.73,114.17,219.73,115.79,220.67z"/>
	</g>
	<g class="st94">
		<path class="st104" d="M115.4,226.49c1.4,0.81,1.41,2.12,0.02,2.93s-3.65,0.81-5.05,0c-1.4-0.81-1.41-2.12-0.02-2.93
			C111.74,225.68,114,225.68,115.4,226.49z"/>
	</g>
	<g class="st96">
		<path class="st105" d="M115.01,232.32c1.19,0.68,1.19,1.79,0.01,2.47c-1.17,0.68-3.08,0.68-4.27,0c-1.18-0.68-1.19-1.79-0.01-2.47
			C111.91,231.63,113.82,231.63,115.01,232.32z"/>
	</g>
	<g class="st98">
		<path class="st106" d="M114.62,238.14c0.97,0.56,0.97,1.46,0.01,2.02c-0.96,0.56-2.52,0.56-3.48,0c-0.97-0.56-0.97-1.46-0.01-2.02
			C112.09,237.58,113.65,237.58,114.62,238.14z"/>
	</g>
	<g class="st100">
		<path class="st107" d="M114.23,243.96c0.75,0.43,0.75,1.13,0.01,1.56s-1.95,0.43-2.7,0c-0.75-0.43-0.75-1.13-0.01-1.56
			S113.48,243.53,114.23,243.96z"/>
	</g>
	<g class="st102">
		<path class="st108" d="M113.84,249.79c0.53,0.31,0.53,0.8,0.01,1.11s-1.38,0.31-1.92,0c-0.53-0.31-0.53-0.8-0.01-1.11
			C112.45,249.48,113.3,249.48,113.84,249.79z"/>
	</g>
</g>
<g>
	<path class="st2" d="M449.54,163.33c1.84,1.06,1.84,2.78,0.02,3.83c-1.82,1.06-4.78,1.06-6.62,0c-1.83-1.06-1.84-2.78-0.02-3.83
		C444.74,162.27,447.71,162.27,449.54,163.33z"/>
	<g class="st92">
		<path class="st109" d="M449.15,169.15c1.62,0.94,1.62,2.45,0.02,3.38c-1.61,0.93-4.21,0.94-5.84,0c-1.62-0.93-1.62-2.45-0.02-3.38
			C444.92,168.22,447.54,168.22,449.15,169.15z"/>
	</g>
	<g class="st94">
		<path class="st110" d="M448.76,174.98c1.4,0.81,1.41,2.12,0.02,2.93c-1.39,0.81-3.65,0.81-5.05,0c-1.4-0.81-1.41-2.12-0.02-2.93
			C445.1,174.17,447.36,174.17,448.76,174.98z"/>
	</g>
	<g class="st96">
		<path class="st111" d="M448.37,180.8c1.19,0.68,1.19,1.79,0.01,2.47c-1.17,0.68-3.08,0.68-4.27,0c-1.18-0.68-1.19-1.79-0.01-2.47
			C445.28,180.12,447.19,180.12,448.37,180.8z"/>
	</g>
	<g class="st98">
		<path class="st112" d="M447.98,186.63c0.97,0.56,0.97,1.46,0.01,2.02c-0.96,0.56-2.52,0.56-3.48,0c-0.96-0.56-0.97-1.46-0.01-2.02
			C445.45,186.07,447.01,186.07,447.98,186.63z"/>
	</g>
	<g class="st100">
		<path class="st113" d="M447.59,192.45c0.75,0.43,0.75,1.13,0.01,1.56c-0.74,0.43-1.95,0.43-2.7,0c-0.75-0.43-0.75-1.13-0.01-1.56
			C445.63,192.02,446.84,192.02,447.59,192.45z"/>
	</g>
	<g class="st102">
		<path class="st108" d="M447.2,198.28c0.53,0.31,0.53,0.8,0.01,1.11c-0.53,0.31-1.38,0.31-1.92,0c-0.53-0.31-0.53-0.8-0.01-1.11
			C445.81,197.97,446.67,197.97,447.2,198.28z"/>
	</g>
</g>
<g>
	<path class="st3" d="M531.43,117.45c1.4,1.2,1.4,3.15,0.02,4.35c-1.38,1.2-3.63,1.2-5.03,0c-1.39-1.2-1.4-3.15-0.02-4.35
		S530.04,116.25,531.43,117.45z"/>
	<g class="st92">
		<path class="st114" d="M531.11,123.42c1.22,1.05,1.22,2.75,0.01,3.79c-1.21,1.05-3.17,1.05-4.39,0c-1.21-1.05-1.22-2.75-0.01-3.79
			C527.93,122.38,529.89,122.38,531.11,123.42z"/>
	</g>
	<g class="st94">
		<path class="st115" d="M530.79,129.4c1.04,0.9,1.04,2.34,0.01,3.24c-1.03,0.89-2.7,0.9-3.74,0c-1.04-0.89-1.04-2.34-0.01-3.24
			C528.07,128.5,529.75,128.5,530.79,129.4z"/>
	</g>
	<g class="st96">
		<path class="st116" d="M530.47,135.37c0.86,0.74,0.86,1.94,0.01,2.68c-0.85,0.74-2.24,0.74-3.1,0c-0.86-0.74-0.86-1.94-0.01-2.68
			C528.22,134.63,529.61,134.63,530.47,135.37z"/>
	</g>
	<g class="st98">
		<path class="st117" d="M530.15,141.34c0.68,0.59,0.68,1.54,0.01,2.13c-0.68,0.59-1.78,0.59-2.46,0c-0.68-0.59-0.68-1.54-0.01-2.13
			C528.37,140.76,529.47,140.76,530.15,141.34z"/>
	</g>
	<g class="st100">
		<path class="st118" d="M529.83,147.32c0.51,0.44,0.51,1.14,0.01,1.57c-0.5,0.43-1.31,0.44-1.82,0c-0.5-0.43-0.51-1.14-0.01-1.57
			C528.51,146.88,529.33,146.88,529.83,147.32z"/>
	</g>
	<g class="st102">
		<path class="st85" d="M529.51,153.29c0.33,0.28,0.33,0.74,0,1.02c-0.32,0.28-0.85,0.28-1.18,0c-0.33-0.28-0.33-0.74,0-1.02
			C528.66,153.01,529.18,153.01,529.51,153.29z"/>
	</g>
</g>
<g>
	<path class="st0" d="M201.83,89.96c1.4,1.2,1.4,3.15,0.02,4.35c-1.38,1.2-3.63,1.2-5.03,0c-1.39-1.2-1.4-3.15-0.02-4.35
		C198.19,88.76,200.44,88.76,201.83,89.96z"/>
	<g class="st92">
		<path class="st119" d="M201.51,95.93c1.22,1.05,1.22,2.75,0.01,3.79c-1.21,1.05-3.17,1.05-4.39,0c-1.21-1.05-1.22-2.75-0.01-3.79
			C198.33,94.88,200.3,94.88,201.51,95.93z"/>
	</g>
	<g class="st94">
		<path class="st120" d="M201.19,101.9c1.04,0.9,1.04,2.34,0.01,3.24c-1.03,0.89-2.7,0.9-3.74,0c-1.04-0.89-1.04-2.34-0.01-3.24
			C198.48,101.01,200.16,101.01,201.19,101.9z"/>
	</g>
	<g class="st96">
		<path class="st121" d="M200.87,107.88c0.86,0.74,0.86,1.94,0.01,2.68c-0.85,0.74-2.24,0.74-3.1,0c-0.86-0.74-0.86-1.94-0.01-2.68
			C198.63,107.14,200.01,107.14,200.87,107.88z"/>
	</g>
	<g class="st98">
		<path class="st122" d="M200.55,113.85c0.68,0.59,0.68,1.54,0.01,2.13c-0.68,0.59-1.78,0.59-2.46,0c-0.68-0.59-0.68-1.54-0.01-2.13
			C198.77,113.26,199.87,113.26,200.55,113.85z"/>
	</g>
	<g class="st100">
		<path class="st123" d="M200.23,119.83c0.51,0.44,0.51,1.14,0.01,1.57c-0.5,0.43-1.31,0.44-1.82,0c-0.5-0.43-0.51-1.14-0.01-1.57
			C198.92,119.39,199.73,119.39,200.23,119.83z"/>
	</g>
	<g class="st102">
		<path class="st85" d="M199.91,125.8c0.33,0.28,0.33,0.74,0,1.02c-0.32,0.28-0.85,0.28-1.18,0c-0.33-0.28-0.33-0.74,0-1.02
			C199.06,125.52,199.59,125.52,199.91,125.8z"/>
	</g>
</g>
<g>
	<g>
		<path class="st124" d="M308.52,217.02c0.59-0.77-0.36-4.55,1.08-5.67c1.22-0.94,2.25-1.97,2.48-1.66
			c0.38,0.51-1.72,2.09-1.49,2.63c0.24,0.54,1.52,1.56,0.72,2.8c-0.85,1.32-0.69,2.84-0.69,2.84L308.52,217.02z"/>
		<path class="st125" d="M298.91,234.05c0,0,4.2-5.2,6.31-8.62c2.23-3.61,3.1-9.14,3.1-9.14l2.88,0.36c0,0-0.38,6.21-1.98,9.99
			c-1.65,3.91-7.02,10.51-7.02,10.51L298.91,234.05z"/>
	</g>
	<path class="st126" d="M312.32,296.05c4.98,2.87,5,7.53,0.06,10.4c-4.94,2.87-12.98,2.87-17.96,0c-4.98-2.87-5-7.53-0.06-10.4
		C299.31,293.18,307.35,293.18,312.32,296.05z"/>
	<path class="st127" d="M299.03,259.32c-3.12-0.12-4.05,4.51-3.47,8.55c0.58,4.05,1.85,11.67,1.19,14.1
		c-0.79,2.95-0.69,9.59-0.04,13.7c0.69,4.39-1.41,5.77-0.09,7.23c1.1,1.21,8.35-1.71,8.35-1.71l-0.66-1.94c0,0-2.93,0.82-3.67,0.17
		c-1.24-1.1,1.66-9.98,1.73-15.49c0.08-5.41,0-11.68-0.69-15.61C301,264.41,299.03,259.32,299.03,259.32z"/>
	<path class="st83" d="M296.49,300.31c0.45,0.01,0.7,0.55,1.8,0.92c0.75,0.25,3.37,0.25,4.37-0.17c1-0.42,2.13-1.41,1.4-1.72
		c-0.04,0.01-0.1,0.02-0.17,0.04c0.41-0.3,3.1-0.57,3.28-0.35c0.33,0.39-0.5,2.42-1.82,2.89c-0.98,0.34-1.97,0.27-4.29,0.73
		c-1.58,0.32-2.15,1.04-3.8,0.91c-1.31-0.11-1.28-1.22-1.21-2.12C296.14,300.41,296.33,300.3,296.49,300.31z"/>
	<path class="st124" d="M304.93,260.19c-3.12-0.12-4.05,4.51-3.47,8.55c0.58,4.05,1.85,11.67,1.19,14.1
		c-0.79,2.95-0.69,9.59-0.04,13.7c0.69,4.39-1.41,5.77-0.09,7.23c1.1,1.21,8.35-1.71,8.35-1.71l0.07-1.38l-0.74-0.56
		c0,0-2.93,0.82-3.67,0.17c-1.24-1.1,1.66-9.98,1.73-15.49c0.08-5.41,0-11.68-0.69-15.61C306.89,265.28,304.93,260.19,304.93,260.19
		z"/>
	<path class="st83" d="M302.38,301.17c0.45,0.01,0.7,0.55,1.8,0.92c0.75,0.25,3.31,0.07,4.37-0.17c2.09-0.43,2.19-1.76,1.4-1.71
		c-0.04,0-0.1,0.02-0.17,0.04c0.41-0.3,3.03-0.39,3.16-0.13c0.32,0.67-0.45,2.08-1.77,2.54c-0.98,0.34-1.89,0.38-4.21,0.85
		c-1.58,0.32-2.15,1.04-3.8,0.91c-1.31-0.11-1.28-1.22-1.21-2.12C302.04,301.28,302.22,301.17,302.38,301.17z"/>
	<path class="st124" d="M307.33,216.17c1.53,0.5,2.15,1.97,2.15,2.81c0,0.85-0.17,1.73-0.1,2.35c0.08,0.62,0.21,1.54,0.29,2.49
		c0.08,0.89-0.44,3.96-2.41,3.97c-1.54,0.01-0.5,3.28-0.5,3.28s-1.53,1.64-3.3,1.64c-1.77,0-3.46-1.4-3.46-1.4s1.61-3.46,1.19-5.51
		c-0.42-2.05,0.04-8.21,0.04-8.21L307.33,216.17z"/>
	<path class="st127" d="M304.9,225.17c-0.52-0.96-2.8-0.11-3.77,0.31c0.02,0.11,0.03,0.22,0.05,0.32c0.1,0.48,0.08,1.03,0.01,1.6
		c0.31,1.07,0.66,2.25,0.71,2.36c0.06,0.14,2.05,1.69,3.15,2.55c1-0.49,1.7-1.23,1.7-1.23s-1.03-3.27,0.5-3.28
		c0.33,0,0.61-0.1,0.87-0.25C307.39,227.18,305.44,226.16,304.9,225.17z"/>
	<path class="st3" d="M297.39,252.04c-1.11,4.32-3.63,4.44-3.01,11.49c0.54,6.11,2.75,10.4,2.04,16.15
		c-0.71,5.75-0.64,4.45-1.01,9.67c-0.16,2.28,0.33,9.86,0.99,10.48c0.84,0.66,3.47,0.46,4.19-0.54c0.96-1.63,0.11-5.43,1.69-10.93
		c1.58-5.5-0.02-6.67,0.34-11.09c0.36-4.42,1.09-22.08,1.09-22.08L297.39,252.04z"/>
	<path class="st0" d="M300.19,252.37c-2.2,5.13-3.2,6.95-1.18,12.17c2.39,6.18,3.23,9.57,2.63,14.36c-0.4,3.18-0.35,5.7-0.35,8.75
		c0,4.07,0.05,11.09,1.1,12.14c0.58,0.58,3.59,0.52,4.14-0.4c0.7-1.15,2.79-20.41,2.72-22.46c-0.16-4.41,0.07-8.78-0.51-14.31
		c-0.4-3.77,0.44-7.2,0-9.26C308.34,251.4,300.19,252.37,300.19,252.37z"/>
	<path class="st3" d="M306.72,231.03c-0.82,0.36-2.57,0.53-3.81,0.3c-2.29-0.43-1.73-1.45-2.37-1.9c-1.59-1.11-4.99,1.9-4.41,11.61
		c0.23,3.85,1.1,7.28,0.64,11.33c1,2.81,6.28,3.89,12.2,1.97c-0.92-6.47,1.91-7.75,1.93-11c0.01-1.68,1.43-8.77,0.25-9.41
		C308.86,232.72,307.28,230.78,306.72,231.03z"/>
	<path class="st124" d="M323.32,233.91c0,0,0.46-0.61,0.52-1.33c0.06-0.72-0.3-3.07,0.35-3.16c0.59-0.09,0.26,1.4,0.58,1.4
		c0.66,0,0.68-3.85,1.21-3.84c0.42,0-0.06,1.99,0.2,1.99c0.26,0,0.58,0.2,0.61,0.43c0.03,0.23,0.2,0.12,0.4,0.29
		c0.2,0.17-0.01,0.37,0.13,0.43c0.12,0.06,0.33,0.2,0.3,0.51c-0.04,0.36-0.4,2.02-1.16,2.62c-1.16,0.9-1.03,1.59-1.03,1.59
		L323.32,233.91z"/>
	<path class="st3" d="M308.95,254.34c-0.79-5.53,1.16-7.27,1.76-9.68l-1.89-4.06c0,0-0.61,7.57-2.03,14.32
		C306.79,254.92,308.58,254.59,308.95,254.34z"/>
	<path class="st0" d="M309.6,233.28c-2.83,0.69-2.08,6.01,0.23,10.32c2.03,3.78,4.29,5.21,6.18,5.33
		c4.51,0.29,9.74-14.45,9.74-14.45l-2.46-1.21l-6.84,9.36C316.45,242.64,313.01,232.45,309.6,233.28z"/>
	<path class="st128" d="M306.35,222.13c-0.49-0.63-0.51-1.51,0.11-1.67c0.62-0.16,1,0.88,2.1,0.48c1.79-0.65,1.47-2.83,0.91-3.79
		c-1.68-2.91-5.99-2.29-6.3-2.23c-0.96,0.18-4.03,0.63-4.73,4.96c-0.63,3.94,0.41,6.87,3.24,7.51
		C304.54,228.04,307.64,224.83,306.35,222.13z"/>
	<path class="st83" d="M306.46,220.46c-0.53,0.14-0.59,0.8-0.29,1.38c-1.23-1.11-3.14-1.94-4.35-1.88
		c-0.94,0.05-2.45,1.13-3.55,2.02c0-0.66,0.06-1.36,0.18-2.1c0.69-4.33,3.77-4.78,4.73-4.96c0.31-0.06,4.61-0.68,6.3,2.23
		c0.56,0.96,0.88,3.14-0.91,3.79C307.46,221.34,307.08,220.3,306.46,220.46z"/>
	<path class="st0" d="M299.82,215.63c0.12-0.12,0.72-1.08,2.02,0.18c1.25,1.21,0.72,4.23-0.71,5.68c-1.43,1.45-3.26,0.27-3.26,0.27
		L299.82,215.63z"/>
	<path class="st83" d="M301.39,216.53c-1.21-2.42-6.48-2.96-8.18,0.37c-2.86,5.62,0.21,10.3,0.59,14.64
		c0.37,4.22-1.9,13.25-1.9,13.25s7.35,2,8.09-3.69c1.14-8.79-2.08-11.77-0.48-18.08C300.27,220.01,302.37,218.49,301.39,216.53z"/>
</g>
<g>
	<g>
		<g>
			<g>
				
					<linearGradient id="SVGID_00000002374301890719337390000011707580178679332785_" gradientUnits="userSpaceOnUse" x1="252.755" y1="1022.7623" x2="276.3799" y2="1022.7623" gradientTransform="matrix(1 0 0 1 0 -868.5969)">
					<stop  offset="0" style="stop-color:#00C1E0"/>
					<stop  offset="0.352" style="stop-color:#0015B8"/>
					<stop  offset="0.7151" style="stop-color:#C004FD"/>
					<stop  offset="1" style="stop-color:#BB06FE"/>
				</linearGradient>
				<path style="fill:url(#SVGID_00000002374301890719337390000011707580178679332785_);" d="M265.59,168.92
					c-7.97-3.16-13.34-11.37-12.8-19.95c0.55-8.58,7.38-13.1,15.79-9.32c3.07,1.38,5.97,3.41,7.8,6.01c-0.3,0.34-0.44,0.5-0.74,0.83
					c-1.66-2.37-4.36-4.27-7.13-5.5c-7.6-3.39-13.85,0.33-14.4,8.08s4.21,15.59,11.48,18.48c4.34,1.72,7.27,1.43,9.65-1.02
					c0.27,0.46,0.41,0.7,0.74,1.17C272.97,170.22,270.36,170.81,265.59,168.92z"/>
			</g>
		</g>
		
			<linearGradient id="SVGID_00000147934136067685091370000001344220110952904361_" gradientUnits="userSpaceOnUse" x1="255.3048" y1="1014.7104" x2="277.2004" y2="1014.7104" gradientTransform="matrix(1 0 0 1 0 -868.5969)">
			<stop  offset="0" style="stop-color:#00C1E0"/>
			<stop  offset="0.7151" style="stop-color:#C004FD"/>
			<stop  offset="1" style="stop-color:#BB06FE"/>
		</linearGradient>
		<path style="fill:url(#SVGID_00000147934136067685091370000001344220110952904361_);" d="M276.32,150.93
			c-1.09,0.94-2.73-0.01-4.22-0.77c-1.16-0.59-2.29-1.21-3.39-1.97c-0.23-0.17-0.44-0.3-0.62-0.45c-0.14-0.09-0.27-0.2-0.39-0.28
			c-0.2-0.16-0.37-0.29-0.51-0.4c-0.04-0.04-0.09-0.07-0.14-0.11c0,0,0,0-0.02-0.01c-0.11-0.09-0.6-0.51-1.27-1.06
			c-0.02-0.01-0.03-0.03-0.03-0.03c-0.17-0.14-0.21-0.18-0.27-0.21c-0.06-0.06-0.12-0.1-0.19-0.15c-0.11-0.1-0.21-0.2-0.33-0.27
			c-0.11-0.09-0.21-0.18-0.33-0.26c-0.11-0.07-0.21-0.15-0.3-0.22c-0.66-0.5-1.44-1.02-2.49-1.72c-0.53-0.36-1.09-0.73-1.73-1.16
			c-0.15-0.09-0.27-0.17-0.41-0.24c-0.96-0.49-1.9-0.5-2.48-0.01c-0.04,0.02-0.08,0.06-0.13,0.09c-0.09,0.08-0.16,0.17-0.23,0.27
			c-0.47,0.77-0.38,2.04,0.2,4.05c0.38,1.31,0.88,2.67,1.5,4.05c0.2,0.44,0.38,0.82,0.51,1.1c0.02,0.04,0.06,0.13,0.12,0.22l0,0
			c-0.29,0.46-0.51,0.86-0.67,1.13c-0.07-0.13-0.12-0.24-0.17-0.33c-0.04-0.07-0.07-0.13-0.1-0.2c-0.02-0.06-0.05-0.11-0.07-0.15
			c-0.04-0.07-0.06-0.13-0.1-0.2c-0.05-0.11-0.1-0.2-0.16-0.31c-0.05-0.04-0.05-0.08-0.08-0.13c-0.81-1.73-1.48-3.42-1.98-5.03
			c-0.18-0.61-0.4-1.32-0.52-2.08c-0.18-1.09-0.18-2.24,0.34-3.15c0.09-0.16,0.19-0.3,0.31-0.43l0,0c0.06-0.05,0.11-0.1,0.16-0.17
			c0.84-0.75,2.1-0.83,3.44-0.18c0.24,0.12,0.48,0.24,0.73,0.4c0.67,0.43,1.27,0.83,1.87,1.22c1.48,0.98,2.44,1.66,3.3,2.35
			c0.08,0.06,0.17,0.14,0.27,0.23c0.06,0.06,0.14,0.11,0.22,0.18c0.03,0.03,0.06,0.06,0.09,0.07c0.03,0.03,0.06,0.06,0.09,0.07
			c0.06,0.06,0.14,0.11,0.22,0.18s0.15,0.13,0.25,0.2c0.06,0.06,0.14,0.13,0.21,0.18l0,0l0,0c0.89,0.74,1.19,0.98,1.38,1.14
			c0,0,0,0,0.02,0.01c0.03,0.01,0.06,0.05,0.08,0.06c0.11,0.08,0.25,0.19,0.4,0.29c0.14,0.11,0.31,0.23,0.49,0.34
			c0.15,0.11,0.31,0.22,0.49,0.32c0,0,0,0,0.02,0.01c0.83,0.52,1.65,0.97,2.49,1.38c1.26,0.62,2.73,1.43,3.42,0.83
			c0.28-0.24,0.44-0.72,0.46-1.34c0.1-0.63-0.09-1.34-0.41-1.81c-0.03,0-0.06-0.06-0.08-0.08c-0.58-0.81-1.26-1.57-2.03-2.26
			c1.18,0.13,2.1,0.55,2.73,1.36l0,0c0.04,0.04,0.08,0.11,0.12,0.15c0.54,0.81,0.83,1.89,0.81,2.96
			C277.17,149.65,276.85,150.49,276.32,150.93z"/>
		
			<linearGradient id="SVGID_00000183239506210983576220000007258679181710856884_" gradientUnits="userSpaceOnUse" x1="267.7943" y1="1033.0939" x2="276.8239" y2="1033.0939" gradientTransform="matrix(1 0 0 1 0 -868.5969)">
			<stop  offset="0" style="stop-color:#5A0B9C"/>
			<stop  offset="0.1211" style="stop-color:#640AA5"/>
			<stop  offset="0.3273" style="stop-color:#7F07BD"/>
			<stop  offset="0.5919" style="stop-color:#AB03E4"/>
			<stop  offset="0.7345" style="stop-color:#C500FC"/>
			<stop  offset="1" style="stop-color:#BE03FA"/>
		</linearGradient>
		<path style="fill:url(#SVGID_00000183239506210983576220000007258679181710856884_);" d="M276.65,166.76
			c-0.13,0.35-0.33,0.63-0.55,0.84l0,0c-0.02,0.02-0.03,0.03-0.05,0.06c-0.25,0.22-0.55,0.33-0.85,0.36
			c-0.47,0.05-0.9-0.04-1.29-0.25c0.43-0.36,0.86-0.76,1.32-1.24c0.02-0.01,0.02-0.02,0.02-0.02c0.18-0.15,0.27-0.38,0.32-0.54
			c0.17-0.53,0.13-1.22-0.08-1.78c-0.4-1.03-1.33-1.5-2.11-1.63c-0.8-0.11-1.7-0.01-2.84,0.09c-0.15,0.01-0.37,0.03-0.68,0.04
			c-0.28,0.01-0.48,0.05-0.59,0.07c-0.29-0.23-0.83-0.66-1.48-1.2c0.12-0.04,0.26-0.07,0.38-0.13c0.21-0.06,0.42-0.11,0.62-0.16
			c0.19-0.05,0.35-0.08,0.47-0.11c1.34-0.31,2.89-0.24,4.02-0.05c0.54,0.09,2.16,0.44,3.11,2.55
			C276.82,164.7,276.97,165.89,276.65,166.76z"/>
		
			<linearGradient id="SVGID_00000079484423346903391350000009249681158887795631_" gradientUnits="userSpaceOnUse" x1="259.3737" y1="1028.9474" x2="275.2239" y2="1028.9474" gradientTransform="matrix(1 0 0 1 0 -868.5969)">
			<stop  offset="0" style="stop-color:#00B0E2"/>
			<stop  offset="0.0917" style="stop-color:#0AA7E3"/>
			<stop  offset="0.2479" style="stop-color:#258EE7"/>
			<stop  offset="0.4497" style="stop-color:#5166ED"/>
			<stop  offset="0.6866" style="stop-color:#8D2FF5"/>
			<stop  offset="0.8603" style="stop-color:#BE03FB"/>
		</linearGradient>
		<path style="fill:url(#SVGID_00000079484423346903391350000009249681158887795631_);" d="M275.22,166.54
			c-0.46,0.48-0.9,0.89-1.32,1.24c-0.43-0.21-0.84-0.53-1.29-0.88c-0.65-0.51-1.44-1.17-2.64-2.1c-0.07-0.06-0.12-0.1-0.22-0.17
			c-0.08-0.06-0.15-0.11-0.25-0.18c-0.18-0.12-0.32-0.25-0.49-0.37c-0.02-0.01-0.04-0.04-0.06-0.05c-0.03-0.03-0.09-0.07-0.14-0.11
			c-0.13-0.09-0.29-0.23-0.52-0.39c-0.11-0.08-0.21-0.18-0.34-0.26c-0.02-0.01-0.04-0.04-0.06-0.05c-0.03-0.01-0.04-0.04-0.06-0.05
			l0,0c-0.4-0.32-0.88-0.72-1.4-1.19c-0.06-0.05-0.14-0.12-0.21-0.18c-0.02-0.01-0.03-0.03-0.04-0.04c-0.06-0.05-0.12-0.1-0.18-0.16
			c-0.22-0.21-0.5-0.43-0.79-0.7c-0.92-0.85-1.81-1.75-2.66-2.7c-0.99-1.11-1.97-2.29-2.75-3.5c-0.13-0.21-0.25-0.4-0.34-0.52
			c-0.02-0.04-0.05-0.09-0.09-0.14l0,0c0.11-0.2,0.32-0.63,0.65-1.14l0,0c0.08,0.13,0.18,0.3,0.27,0.44
			c0.04,0.07,0.08,0.13,0.13,0.21c0.05,0.09,0.13,0.19,0.18,0.28c0.04,0.07,0.08,0.13,0.13,0.19c0.07,0.1,0.13,0.19,0.19,0.26
			c0.02,0.03,0.02,0.04,0.04,0.05c0.76,1.05,1.56,2.04,2.42,3.03c0.94,1.06,1.92,2.04,2.94,2.96c0.1,0.09,0.21,0.18,0.32,0.29
			c0.16,0.15,0.34,0.3,0.54,0.47c0.18,0.16,0.36,0.31,0.56,0.49l0,0c0.64,0.54,1.18,0.96,1.48,1.2c0.04,0.04,0.08,0.06,0.11,0.08
			c0.54,0.41,1.39,1.1,2.06,1.66c0.56,0.45,1.01,0.84,1.42,1.16c0.73,0.56,1.42,1.1,2.1,1C275.05,166.66,275.14,166.6,275.22,166.54
			z"/>
		
			<linearGradient id="SVGID_00000035496945649629977050000004963278886365828276_" gradientUnits="userSpaceOnUse" x1="256.771" y1="1023.8438" x2="267.8377" y2="1023.8438" gradientTransform="matrix(1 0 0 1 0 -868.5969)">
			<stop  offset="0" style="stop-color:#0031B7"/>
			<stop  offset="0.1976" style="stop-color:#1329B0"/>
			<stop  offset="0.5954" style="stop-color:#43159E"/>
			<stop  offset="0.7374" style="stop-color:#560D97"/>
			<stop  offset="0.9804" style="stop-color:#560D97"/>
		</linearGradient>
		<path style="fill:url(#SVGID_00000035496945649629977050000004963278886365828276_);" d="M267.83,163.17
			c-0.23,0.06-0.64,0.17-1.17,0.33c-0.99,0.28-2.01,0.54-3.01,0.79c-0.97,0.23-1.98,0.43-3.09,0.31c-0.45-0.06-0.9-0.16-1.3-0.32
			c-0.69-0.29-1.27-0.77-1.73-1.52c-0.42-0.68-0.69-1.57-0.73-2.54c-0.01-0.1-0.01-0.19,0-0.29c-0.02-0.82,0.04-1.69,0.18-2.56
			c0.25-1.42,0.66-2.82,1.25-4.1c0.02-0.02,0.04-0.08,0.08-0.15c0-0.02,0.02-0.02,0.02-0.06c0-0.02,0.02-0.04,0.02-0.06
			c0-0.02,0.02-0.04,0.03-0.07c0.03-0.07,0.08-0.15,0.14-0.26c0.02-0.04,0.04-0.08,0.06-0.13c0.16-0.29,0.37-0.68,0.67-1.13
			c0.02-0.02,0.03-0.05,0.05-0.07c0.03-0.05,0.08-0.12,0.11-0.18c0.71-1.03,1.59-1.96,2.55-2.8c0.94-0.82,2.07-1.62,3.32-2.26
			c0.18-0.09,0.41-0.21,0.45-0.23c0.02,0.01,0.03,0.03,0.03,0.03c0.67,0.55,1.16,0.97,1.26,1.08c0,0,0,0-0.02-0.01
			c-0.05,0.04-0.14,0.07-0.24,0.14c-0.02,0.01-0.05,0.03-0.07,0.04c-0.05,0.03-0.12,0.06-0.2,0.1s-0.15,0.07-0.24,0.12
			c-0.17,0.08-0.34,0.17-0.53,0.27c-0.98,0.54-1.91,1.2-2.74,1.92c-0.92,0.82-1.79,1.73-2.5,2.73c-0.12,0.18-0.23,0.34-0.31,0.44
			c-0.04,0.08-0.09,0.15-0.14,0.21c-0.33,0.51-0.54,0.94-0.65,1.14c0,0.02,0,0.03-0.02,0.04c0,0.02-0.02,0.02-0.02,0.02
			c-0.06,0.14-0.12,0.26-0.17,0.36c-0.02,0.02-0.03,0.06-0.04,0.08c-0.49,1.08-0.86,2.23-1.07,3.43c-0.15,0.83-0.21,1.7-0.17,2.49
			c0.02,0.45,0.11,1.08,0.43,1.57c0.64,1.01,1.86,1.17,2.77,1.14c1.51-0.06,2.84-0.52,4.2-0.89c0.45-0.12,0.84-0.23,1.13-0.31
			C266.96,162.43,267.44,162.84,267.83,163.17z"/>
		
			<linearGradient id="SVGID_00000046302039449748302300000003642727900687720878_" gradientUnits="userSpaceOnUse" x1="266.9173" y1="1013.8393" x2="275.5658" y2="1013.8393" gradientTransform="matrix(1 0 0 1 0 -868.5969)">
			<stop  offset="0" style="stop-color:#500E92"/>
			<stop  offset="0.0498" style="stop-color:#590D9A"/>
			<stop  offset="0.6786" style="stop-color:#C300FA"/>
			<stop  offset="1" style="stop-color:#C201FC"/>
		</linearGradient>
		<path style="fill:url(#SVGID_00000046302039449748302300000003642727900687720878_);" d="M275.57,146.37
			c-0.96-1.29-4-1.11-7.18,0.02c-0.04,0.01-0.05,0.02-0.09,0.03c-0.21-0.16-0.48-0.39-1.38-1.14c0.01,0,0.01-0.01,0.02-0.01
			c0.03-0.02,0.07-0.04,0.12-0.04c0.09-0.03,0.17-0.06,0.26-0.1c0.14-0.05,0.31-0.11,0.51-0.18c0.05-0.03,0.12-0.04,0.19-0.07
			c0.07-0.04,0.16-0.06,0.24-0.09c1.83-0.58,3.78-0.83,5.26-0.68C274.32,144.81,274.98,145.57,275.57,146.37z"/>
	</g>
</g>
</svg>
